<?xml version="1.0" encoding="UTF-8" standalone="no"?>
<!-- Created with Inkscape (http://www.inkscape.org/) -->

<svg
   xmlns:dc="http://purl.org/dc/elements/1.1/"
   xmlns:cc="http://creativecommons.org/ns#"
   xmlns:rdf="http://www.w3.org/1999/02/22-rdf-syntax-ns#"
   xmlns:svg="http://www.w3.org/2000/svg"
   xmlns="http://www.w3.org/2000/svg"
   xmlns:sodipodi="http://sodipodi.sourceforge.net/DTD/sodipodi-0.dtd"
   xmlns:inkscape="http://www.inkscape.org/namespaces/inkscape"
   width="85.599998mm"
   height="53.98mm"
   viewBox="0 0 303.30707 191.26771"
   id="svg2"
   version="1.1"
   inkscape:version="0.92.3 (2405546, 2018-03-11)"
   sodipodi:docname="trimethop-card.svg">
  <defs
     id="defs4" />
  <sodipodi:namedview
     id="base"
     pagecolor="#ffffff"
     bordercolor="#666666"
     borderopacity="1.0"
     inkscape:pageopacity="0"
     inkscape:pageshadow="2"
     inkscape:zoom="2.8284271"
     inkscape:cx="150.31115"
     inkscape:cy="83.151264"
     inkscape:document-units="px"
     inkscape:current-layer="layer3"
     showgrid="true"
     inkscape:showpageshadow="false"
     inkscape:window-width="2131"
     inkscape:window-height="1135"
     inkscape:window-x="1446"
     inkscape:window-y="587"
     inkscape:window-maximized="0"
     showguides="true"
     inkscape:guide-bbox="true">
    <sodipodi:guide
       position="224.99999,44.999998"
       orientation="0,1"
       id="guide830"
       inkscape:locked="false" />
    <sodipodi:guide
       position="224.99999,116.99999"
       orientation="0,1"
       id="guide832"
       inkscape:locked="false" />
    <sodipodi:guide
       position="233.99999,105.75"
       orientation="0,1"
       id="guide834"
       inkscape:locked="false" />
    <sodipodi:guide
       position="236.24999,83.249996"
       orientation="0,1"
       id="guide836"
       inkscape:locked="false" />
    <inkscape:grid
       type="xygrid"
       id="grid838"
       units="in"
       spacingx="2.2499999"
       spacingy="2.2499999"
       empspacing="4"
       dotted="false" />
  </sodipodi:namedview>
  <metadata
     id="metadata7">
    <rdf:RDF>
      <cc:Work
         rdf:about="">
        <dc:format>image/svg+xml</dc:format>
        <dc:type
           rdf:resource="http://purl.org/dc/dcmitype/StillImage" />
        <dc:title></dc:title>
      </cc:Work>
    </rdf:RDF>
  </metadata>
  <g
     inkscape:label="Layer 1"
     inkscape:groupmode="layer"
     id="layer1"
     transform="translate(0,-861.09448)"
     style="display:inline;opacity:1"
     sodipodi:insensitive="true">
    <rect
       style="fill:#36079d;fill-opacity:1;fill-rule:evenodd;stroke:none;stroke-width:1px;stroke-linecap:butt;stroke-linejoin:miter;stroke-opacity:1"
       id="rect3368"
       width="303.3071"
       height="191.26772"
       x="0"
       y="861.09448"
       rx="11.25"
       ry="11.25" />
  </g>
  <g
     inkscape:groupmode="layer"
     id="layer3"
     inkscape:label="cardtext">
    <g
       id="g860"
       transform="matrix(1.2685106,0,0,1.2685106,-41.001505,-31.717789)">
      <g
         aria-label="fastpass"
         style="font-style:normal;font-weight:normal;font-size:37.5px;line-height:1.25;font-family:sans-serif;letter-spacing:0px;word-spacing:0px;opacity:1;fill:#000000;fill-opacity:1;stroke:none;stroke-width:0.9375"
         id="text825">
        <path
           d="m 89.082031,145.79901 v -8.11523 l -0.966797,-0.12696 q -0.205078,-0.0195 -0.332031,-0.12695 -0.126953,-0.10742 -0.126953,-0.30273 v -0.70313 h 1.425781 v -0.9082 q 0,-0.82031 0.214844,-1.45508 0.224609,-0.64453 0.634766,-1.07422 0.410156,-0.43945 0.996093,-0.66406 0.585938,-0.23438 1.31836,-0.23438 0.302734,0 0.585937,0.0488 0.292969,0.0488 0.556641,0.13672 l -0.04883,0.85938 q -0.01953,0.2246 -0.234375,0.2539 -0.214844,0.0195 -0.576172,0.0195 -0.410156,0 -0.742188,0.10742 -0.322265,0.10743 -0.55664,0.36133 -0.234375,0.25391 -0.361328,0.67383 -0.126954,0.41016 -0.126954,1.01563 v 0.85937 h 2.56836 v 1.25 h -2.509766 v 8.125 z"
           style="font-style:normal;font-variant:normal;font-weight:normal;font-stretch:normal;font-size:20px;font-family:Carlito;-inkscape-font-specification:Carlito;fill:#ffffff;stroke-width:0.9375"
           id="path862"
           inkscape:connector-curvature="0" />
        <path
           d="m 100.71289,145.79901 q -0.25391,0 -0.39062,-0.0781 -0.13672,-0.0781 -0.18555,-0.32227 l -0.214845,-0.88867 q -0.371094,0.3418 -0.732422,0.61523 -0.351562,0.26367 -0.742187,0.44922 -0.390625,0.18555 -0.839844,0.27344 -0.449219,0.0977 -0.986328,0.0977 -0.556641,0 -1.044922,-0.14649 -0.478516,-0.15625 -0.84961,-0.46875 -0.361328,-0.32226 -0.576171,-0.79101 -0.205079,-0.47852 -0.205079,-1.12305 0,-0.56641 0.302735,-1.08399 0.3125,-0.52734 1.005859,-0.9375 0.69336,-0.41015 1.806641,-0.66406 1.113281,-0.26367 2.734375,-0.30273 v -0.73242 q 0,-1.11329 -0.478516,-1.66993 -0.46875,-0.5664 -1.376953,-0.5664 -0.605469,0 -1.025391,0.15625 -0.410156,0.15625 -0.71289,0.34179 -0.302735,0.18555 -0.527344,0.3418 -0.214844,0.15625 -0.439453,0.15625 -0.175781,0 -0.302734,-0.0879 -0.126954,-0.0879 -0.205079,-0.22461 l -0.3125,-0.54687 q 0.791016,-0.76172 1.699219,-1.13282 0.917969,-0.38086 2.03125,-0.38086 0.800781,0 1.425781,0.26368 0.624998,0.2539 1.044918,0.73242 0.41993,0.47851 0.63477,1.14258 0.22461,0.66406 0.22461,1.47461 v 6.10351 z m -3.574218,-1.05469 q 0.429687,0 0.791015,-0.0879 0.361329,-0.0879 0.683594,-0.24414 0.322266,-0.16601 0.605469,-0.40039 0.292969,-0.24414 0.576172,-0.53711 v -1.97265 q -1.142578,0.0488 -1.94336,0.19531 -0.800781,0.13672 -1.308593,0.37109 -0.498047,0.23438 -0.722657,0.55664 -0.224609,0.3125 -0.224609,0.70313 0,0.37109 0.117188,0.64453 0.126953,0.26367 0.332031,0.43945 0.205078,0.16602 0.488281,0.25391 0.283203,0.0781 0.605469,0.0781 z"
           style="font-style:normal;font-variant:normal;font-weight:normal;font-stretch:normal;font-size:20px;font-family:Carlito;-inkscape-font-specification:Carlito;fill:#ffffff;stroke-width:0.9375"
           id="path864"
           inkscape:connector-curvature="0" />
        <path
           d="m 109.32617,137.83026 q -0.11719,0.21484 -0.35156,0.21484 -0.14648,0 -0.32227,-0.10742 -0.16601,-0.10742 -0.41015,-0.22461 -0.23438,-0.12695 -0.56641,-0.23437 -0.32226,-0.10742 -0.77148,-0.10742 -0.38086,0 -0.6836,0.10742 -0.30273,0.10742 -0.51757,0.29297 -0.21485,0.18554 -0.33204,0.43945 -0.11718,0.24414 -0.11718,0.52734 0,0.3711 0.19531,0.61524 0.19531,0.24414 0.51758,0.41992 0.32226,0.17578 0.73242,0.32227 0.41992,0.13671 0.84961,0.2832 0.42969,0.14648 0.83984,0.3418 0.41992,0.19531 0.74219,0.47851 0.32227,0.2832 0.51758,0.69336 0.19531,0.40039 0.19531,0.97656 0,0.66407 -0.22461,1.23047 -0.22461,0.55664 -0.66406,0.9668 -0.42969,0.41016 -1.07422,0.64453 -0.63477,0.23438 -1.46484,0.23438 -0.94727,0 -1.72852,-0.32227 -0.77148,-0.32227 -1.30859,-0.83984 l 0.40039,-0.64454 q 0.0781,-0.12695 0.18554,-0.19531 0.10743,-0.0684 0.27344,-0.0684 0.17578,0 0.35156,0.13672 0.17579,0.12695 0.41993,0.29297 0.2539,0.15625 0.60546,0.29297 0.35157,0.12695 0.87891,0.12695 0.44922,0 0.77149,-0.12695 0.33203,-0.12695 0.54687,-0.33203 0.21484,-0.21485 0.32227,-0.49805 0.10742,-0.2832 0.10742,-0.5957 0,-0.39063 -0.20508,-0.64453 -0.19531,-0.26368 -0.51758,-0.43946 -0.32226,-0.18554 -0.74219,-0.32226 -0.41015,-0.13672 -0.84961,-0.28321 -0.42968,-0.15625 -0.8496,-0.34179 -0.41016,-0.19531 -0.73243,-0.48828 -0.32226,-0.30274 -0.52734,-0.73243 -0.19531,-0.42968 -0.19531,-1.04492 0,-0.55664 0.21484,-1.05468 0.21484,-0.50782 0.625,-0.88868 0.41016,-0.38086 1.01563,-0.60547 0.60546,-0.2246 1.38671,-0.2246 0.88868,0 1.61133,0.29296 0.72266,0.29297 1.23047,0.82032 z"
           style="font-style:normal;font-variant:normal;font-weight:normal;font-stretch:normal;font-size:20px;font-family:Carlito;-inkscape-font-specification:Carlito;fill:#ffffff;stroke-width:0.9375"
           id="path866"
           inkscape:connector-curvature="0" />
        <path
           d="m 114.3457,145.9455 q -1.10351,0 -1.69922,-0.63477 -0.5957,-0.63477 -0.5957,-1.81641 v -5.82031 h -1.09375 q -0.14648,0 -0.2539,-0.0977 -0.0977,-0.0976 -0.0977,-0.2832 v -0.68359 l 1.50391,-0.19531 0.40039,-2.93946 q 0.0195,-0.14648 0.11718,-0.23437 0.10743,-0.0879 0.26368,-0.0879 h 0.8789 v 3.27148 h 2.62695 v 1.25 h -2.62695 v 5.70313 q 0,0.58593 0.26367,0.8789 0.27344,0.29297 0.70313,0.29297 0.2539,0 0.42969,-0.0684 0.18554,-0.0684 0.3125,-0.15625 0.12695,-0.0879 0.21484,-0.15625 0.0977,-0.0684 0.17578,-0.0684 0.0879,0 0.13672,0.0391 0.0586,0.0391 0.10742,0.12696 l 0.50781,0.82031 q -0.43945,0.41016 -1.03515,0.63477 -0.59571,0.22461 -1.24024,0.22461 z"
           style="font-style:normal;font-variant:normal;font-weight:normal;font-stretch:normal;font-size:20px;font-family:Carlito;-inkscape-font-specification:Carlito;fill:#ffffff;stroke-width:0.9375"
           id="path868"
           inkscape:connector-curvature="0" />
        <path
           d="m 118.36914,149.02167 v -12.77344 h 1.02539 q 0.18555,0 0.30274,0.0879 0.11718,0.0781 0.13671,0.26367 L 120,137.71307 q 0.60547,-0.73242 1.38672,-1.18164 0.78125,-0.44922 1.79687,-0.44922 0.82032,0 1.48438,0.32227 0.66406,0.3125 1.13281,0.92773 0.46875,0.61524 0.72266,1.52344 0.2539,0.9082 0.2539,2.09961 0,1.05469 -0.2832,1.97266 -0.2832,0.9082 -0.82031,1.58203 -0.52735,0.66406 -1.28906,1.04492 -0.76172,0.38086 -1.71875,0.38086 -0.86914,0 -1.48438,-0.29297 -0.61523,-0.29297 -1.09375,-0.82031 v 4.19922 z m 4.24805,-11.5625 q -0.80078,0 -1.41602,0.37109 -0.60547,0.37109 -1.11328,1.05469 v 4.60937 q 0.44922,0.61524 0.98633,0.86914 0.54687,0.24414 1.21094,0.24414 1.30859,0 2.01172,-0.94726 0.71289,-0.94727 0.71289,-2.70508 0,-0.92773 -0.16602,-1.5918 -0.15625,-0.66406 -0.46875,-1.08398 -0.30273,-0.42969 -0.75195,-0.625 -0.43946,-0.19531 -1.00586,-0.19531 z"
           style="font-style:normal;font-variant:normal;font-weight:normal;font-stretch:normal;font-size:20px;font-family:Carlito;-inkscape-font-specification:Carlito;fill:#ffffff;stroke-width:0.9375"
           id="path870"
           inkscape:connector-curvature="0" />
        <path
           d="m 135.08789,145.79901 q -0.25391,0 -0.39062,-0.0781 -0.13672,-0.0781 -0.18555,-0.32227 l -0.21485,-0.88867 q -0.37109,0.3418 -0.73242,0.61523 -0.35156,0.26367 -0.74218,0.44922 -0.39063,0.18555 -0.83985,0.27344 -0.44922,0.0977 -0.98633,0.0977 -0.55664,0 -1.04492,-0.14649 -0.47851,-0.15625 -0.84961,-0.46875 -0.36133,-0.32226 -0.57617,-0.79101 -0.20508,-0.47852 -0.20508,-1.12305 0,-0.56641 0.30274,-1.08399 0.3125,-0.52734 1.00586,-0.9375 0.69336,-0.41015 1.80664,-0.66406 1.11328,-0.26367 2.73437,-0.30273 v -0.73242 q 0,-1.11329 -0.47851,-1.66993 -0.46875,-0.5664 -1.37696,-0.5664 -0.60547,0 -1.02539,0.15625 -0.41015,0.15625 -0.71289,0.34179 -0.30273,0.18555 -0.52734,0.3418 -0.21485,0.15625 -0.43946,0.15625 -0.17578,0 -0.30273,-0.0879 -0.12695,-0.0879 -0.20508,-0.22461 l -0.3125,-0.54687 q 0.79102,-0.76172 1.69922,-1.13282 0.91797,-0.38086 2.03125,-0.38086 0.80078,0 1.42578,0.26368 0.625,0.2539 1.04492,0.73242 0.41993,0.47851 0.63477,1.14258 0.22461,0.66406 0.22461,1.47461 v 6.10351 z m -3.57422,-1.05469 q 0.42969,0 0.79102,-0.0879 0.36133,-0.0879 0.68359,-0.24414 0.32227,-0.16601 0.60547,-0.40039 0.29297,-0.24414 0.57617,-0.53711 v -1.97265 q -1.14258,0.0488 -1.94336,0.19531 -0.80078,0.13672 -1.30859,0.37109 -0.49805,0.23438 -0.72266,0.55664 -0.22461,0.3125 -0.22461,0.70313 0,0.37109 0.11719,0.64453 0.12695,0.26367 0.33203,0.43945 0.20508,0.16602 0.48828,0.25391 0.28321,0.0781 0.60547,0.0781 z"
           style="font-style:normal;font-variant:normal;font-weight:normal;font-stretch:normal;font-size:20px;font-family:Carlito;-inkscape-font-specification:Carlito;fill:#ffffff;stroke-width:0.9375"
           id="path872"
           inkscape:connector-curvature="0" />
        <path
           d="m 143.70117,137.83026 q -0.11719,0.21484 -0.35156,0.21484 -0.14649,0 -0.32227,-0.10742 -0.16601,-0.10742 -0.41015,-0.22461 -0.23438,-0.12695 -0.56641,-0.23437 -0.32226,-0.10742 -0.77148,-0.10742 -0.38086,0 -0.6836,0.10742 -0.30273,0.10742 -0.51758,0.29297 -0.21484,0.18554 -0.33203,0.43945 -0.11718,0.24414 -0.11718,0.52734 0,0.3711 0.19531,0.61524 0.19531,0.24414 0.51758,0.41992 0.32226,0.17578 0.73242,0.32227 0.41992,0.13671 0.84961,0.2832 0.42969,0.14648 0.83984,0.3418 0.41992,0.19531 0.74219,0.47851 0.32226,0.2832 0.51758,0.69336 0.19531,0.40039 0.19531,0.97656 0,0.66407 -0.22461,1.23047 -0.22461,0.55664 -0.66406,0.9668 -0.42969,0.41016 -1.07422,0.64453 -0.63477,0.23438 -1.46484,0.23438 -0.94727,0 -1.72852,-0.32227 -0.77148,-0.32227 -1.30859,-0.83984 l 0.40039,-0.64454 q 0.0781,-0.12695 0.18554,-0.19531 0.10743,-0.0684 0.27344,-0.0684 0.17578,0 0.35156,0.13672 0.17578,0.12695 0.41993,0.29297 0.2539,0.15625 0.60546,0.29297 0.35157,0.12695 0.87891,0.12695 0.44922,0 0.77148,-0.12695 0.33204,-0.12695 0.54688,-0.33203 0.21484,-0.21485 0.32227,-0.49805 0.10742,-0.2832 0.10742,-0.5957 0,-0.39063 -0.20508,-0.64453 -0.19531,-0.26368 -0.51758,-0.43946 -0.32226,-0.18554 -0.74219,-0.32226 -0.41015,-0.13672 -0.84961,-0.28321 -0.42968,-0.15625 -0.84961,-0.34179 -0.41015,-0.19531 -0.73242,-0.48828 -0.32226,-0.30274 -0.52734,-0.73243 -0.19531,-0.42968 -0.19531,-1.04492 0,-0.55664 0.21484,-1.05468 0.21484,-0.50782 0.625,-0.88868 0.41016,-0.38086 1.01563,-0.60547 0.60546,-0.2246 1.38671,-0.2246 0.88868,0 1.61133,0.29296 0.72266,0.29297 1.23047,0.82032 z"
           style="font-style:normal;font-variant:normal;font-weight:normal;font-stretch:normal;font-size:20px;font-family:Carlito;-inkscape-font-specification:Carlito;fill:#ffffff;stroke-width:0.9375"
           id="path874"
           inkscape:connector-curvature="0" />
        <path
           d="m 151.51367,137.83026 q -0.11719,0.21484 -0.35156,0.21484 -0.14649,0 -0.32227,-0.10742 -0.16601,-0.10742 -0.41015,-0.22461 -0.23438,-0.12695 -0.56641,-0.23437 -0.32226,-0.10742 -0.77148,-0.10742 -0.38086,0 -0.6836,0.10742 -0.30273,0.10742 -0.51758,0.29297 -0.21484,0.18554 -0.33203,0.43945 -0.11718,0.24414 -0.11718,0.52734 0,0.3711 0.19531,0.61524 0.19531,0.24414 0.51758,0.41992 0.32226,0.17578 0.73242,0.32227 0.41992,0.13671 0.84961,0.2832 0.42969,0.14648 0.83984,0.3418 0.41992,0.19531 0.74219,0.47851 0.32226,0.2832 0.51758,0.69336 0.19531,0.40039 0.19531,0.97656 0,0.66407 -0.22461,1.23047 -0.22461,0.55664 -0.66406,0.9668 -0.42969,0.41016 -1.07422,0.64453 -0.63477,0.23438 -1.46484,0.23438 -0.94727,0 -1.72852,-0.32227 -0.77148,-0.32227 -1.30859,-0.83984 l 0.40039,-0.64454 q 0.0781,-0.12695 0.18554,-0.19531 0.10743,-0.0684 0.27344,-0.0684 0.17578,0 0.35156,0.13672 0.17578,0.12695 0.41993,0.29297 0.2539,0.15625 0.60546,0.29297 0.35157,0.12695 0.87891,0.12695 0.44922,0 0.77148,-0.12695 0.33204,-0.12695 0.54688,-0.33203 0.21484,-0.21485 0.32227,-0.49805 0.10742,-0.2832 0.10742,-0.5957 0,-0.39063 -0.20508,-0.64453 -0.19531,-0.26368 -0.51758,-0.43946 -0.32226,-0.18554 -0.74219,-0.32226 -0.41015,-0.13672 -0.84961,-0.28321 -0.42968,-0.15625 -0.84961,-0.34179 -0.41015,-0.19531 -0.73242,-0.48828 -0.32226,-0.30274 -0.52734,-0.73243 -0.19531,-0.42968 -0.19531,-1.04492 0,-0.55664 0.21484,-1.05468 0.21484,-0.50782 0.625,-0.88868 0.41016,-0.38086 1.01563,-0.60547 0.60546,-0.2246 1.38671,-0.2246 0.88868,0 1.61133,0.29296 0.72266,0.29297 1.23047,0.82032 z"
           style="font-style:normal;font-variant:normal;font-weight:normal;font-stretch:normal;font-size:20px;font-family:Carlito;-inkscape-font-specification:Carlito;fill:#ffffff;stroke-width:0.9375"
           id="path876"
           inkscape:connector-curvature="0" />
      </g>
      <path
         sodipodi:nodetypes="cccc"
         inkscape:connector-curvature="0"
         id="path840"
         d="m 78.749996,128.26771 c 34.881274,-3.95888 67.448444,-2.74246 94.499994,18 v -18 c -25.7256,-17.04554 -68.36704,-11.31565 -94.499994,0 z"
         style="fill:#ff8c24;fill-opacity:1;stroke:none;stroke-width:0.9375px;stroke-linecap:butt;stroke-linejoin:miter;stroke-opacity:1" />
      <g
         aria-label="TM"
         style="font-style:normal;font-weight:normal;font-size:37.5px;line-height:1.25;font-family:sans-serif;letter-spacing:0px;word-spacing:0px;fill:#ffffff;fill-opacity:1;stroke:none;stroke-width:0.9375"
         id="text844">
        <path
           d="m 152.99701,142.106 h 3.0835 v 0.41504 h -1.29395 v 3.22998 h -0.49561 v -3.22998 h -1.29394 z"
           style="font-size:5px;fill:#ffffff;fill-opacity:1;stroke-width:0.9375"
           id="path879"
           inkscape:connector-curvature="0" />
        <path
           d="m 156.55902,142.106 h 0.73486 l 0.93018,2.48047 0.93506,-2.48047 h 0.73486 v 3.64502 h -0.48096 v -3.20068 l -0.93994,2.5 h -0.4956 l -0.93994,-2.5 v 3.20068 h -0.47852 z"
           style="font-size:5px;fill:#ffffff;fill-opacity:1;stroke-width:0.9375"
           id="path881"
           inkscape:connector-curvature="0" />
      </g>
      <path
         inkscape:connector-curvature="0"
         id="path846"
         transform="scale(0.93749998)"
         d="m 96,55.21875 v 72 l 14.40039,-2.40039 v -21.59961 c 0,-4.800002 2.39961,-9.599609 9.59961,-9.599609 4.79999,0 7.19921,4.799607 7.19922,9.599609 v 19.19922 h 14.40039 v -9.59961 c -1e-5,2.39999 4.80116,9.5996 7.20117,9.59961 9.59999,-1e-5 18.8258,2.85952 21.59961,4.80078 4.79999,-1e-5 16.79882,-9.6004 16.79883,-14.40039 v 43.20117 h 14.40039 v -31.20117 c 7.19999,2.39999 7.19999,2.40038 12,2.40039 11.99999,-1e-5 26.40039,-7.2 26.40039,-24 0,-12.000006 -9.6004,-24.000001 -26.40039,-24 -4.80001,-10e-7 -9.60001,2.400781 -12,4.800781 V 79.21875 h -14.40039 v 14.400391 c -1e-5,-7.200001 -11.99962,-14.400392 -21.59961,-14.400391 -16.80001,-10e-7 -24.00001,9.600391 -24,14.400391 -1e-5,-4.8 -7.19884,-14.400386 -16.79883,-14.400391 -7.2,5e-6 -12.00039,2.400781 -14.40039,4.800781 V 55.21875 Z m 69.59961,36 a 12,12 0 0 1 12,12 12,12 0 0 1 -12,12 12,12 0 0 1 -12,-12 12,12 0 0 1 12,-12 z m 49.20117,0 a 12,12 0 0 1 12,12 12,12 0 0 1 -12,12 12,12 0 0 1 -12,-12 12,12 0 0 1 12,-12 z"
         style="fill:#ffffff;fill-opacity:1;stroke:none;stroke-width:1px;stroke-linecap:butt;stroke-linejoin:miter;stroke-opacity:1" />
    </g>
  </g>
</svg>
