<?xml version="1.0" encoding="utf-8"?>
<!-- Generator: Adobe Illustrator 23.0.3, SVG Export Plug-In . SVG Version: 6.00 Build 0)  -->
<svg version="1.1" id="waltti-tunnus" xmlns="http://www.w3.org/2000/svg" xmlns:xlink="http://www.w3.org/1999/xlink" x="0px"
	 y="0px" viewBox="0 0 210 164.6" style="enable-background:new 0 0 210 164.6;" xml:space="preserve">
<style type="text/css">
	.st0{fill:#FFC425;}
	.st1{fill:#F26522;}
</style>
<g>
	<path class="st0" d="M105,144.7H71.4c-11.8,0-18.1-4.7-20.9-13.7L22,37.6c-0.6-2.2-2-6.5-2-9C20,24.1,23.6,20,30,20h75h75
		c6.4,0,10.1,4.1,10.1,8.7c0,2.5-1.4,6.8-2,9L159.5,131c-2.8,9-9.1,13.7-20.9,13.7H105z"/>
	<g>
		<path class="st1" d="M137.4,92.9l0.7-3.4c0-0.1,0.1-0.2,0.2-0.2h0.1c0.1,0,0.2,0.1,0.2,0.1l1,2.7l1-2.7c0-0.1,0.1-0.1,0.2-0.1h0.1
			c0.1,0,0.2,0.1,0.2,0.2l0.7,3.5c0,0.2-0.1,0.3-0.2,0.3h-0.2c-0.1,0-0.2-0.1-0.2-0.2l-0.4-2.1l-0.9,2.2c0,0.1-0.1,0.1-0.2,0.1h-0.1
			c-0.1,0-0.2-0.1-0.2-0.1l-0.9-2.2l-0.4,2.1c0,0.1-0.1,0.2-0.2,0.2h-0.1C137.5,93.2,137.4,93.1,137.4,92.9 M135.2,93v-3h-0.9
			c-0.1,0-0.2-0.1-0.2-0.2v-0.1c0-0.1,0.1-0.2,0.2-0.2h2.4c0.1,0,0.2,0.1,0.2,0.2v0.1c0,0.1-0.1,0.2-0.2,0.2h-0.9v3
			c0,0.1-0.1,0.2-0.2,0.2h-0.2C135.3,93.2,135.2,93.1,135.2,93"/>
		<g>
			<path class="st1" d="M72.9,113.9c-0.1-0.4,0-0.7,0.5-0.7h1c0.3,0,0.5,0.2,0.6,0.4l2.4,8.5h0l3.6-8.9c0.1-0.2,0.3-0.3,0.6-0.3h0.2
				c0.3,0,0.5,0.2,0.6,0.3l3.6,8.9h0l2.3-8.6c0.1-0.2,0.3-0.4,0.6-0.4h1c0.5,0,0.6,0.3,0.5,0.7l-3.5,12.2c-0.1,0.2-0.3,0.3-0.6,0.3
				H86c-0.3,0-0.5-0.2-0.5-0.3l-3.9-9.7l-3.8,9.7c-0.1,0.2-0.3,0.3-0.6,0.3H77c-0.3,0-0.5-0.1-0.5-0.3L72.9,113.9z"/>
			<path class="st1" d="M96.7,124.5c1.6,0,3-1,3.6-1.8v-2.5c-0.4-0.2-1.3-0.5-2.7-0.5c-1.8,0-3.1,0.9-3.1,2.6
				C94.4,123.5,95.3,124.5,96.7,124.5 M97.5,117.9c1.4,0,2.7,0.4,2.7,0.4c0-2.4-0.3-3.5-2.1-3.5c-1.8,0-3.3,0.5-3.9,0.7
				c-0.3,0.1-0.5,0-0.6-0.3l-0.3-0.8c-0.1-0.4,0.1-0.6,0.4-0.7c0.2-0.1,2.1-0.8,4.5-0.8c3.3,0,4.1,1.7,4.1,5.5v7.2
				c0,0.3-0.3,0.6-0.6,0.6h-0.6c-0.4,0-0.5-0.2-0.6-0.5l-0.3-0.9c-0.7,0.7-2,1.7-4,1.7c-2.3,0-4-1.7-4-4.2
				C92.4,119.7,94.2,117.9,97.5,117.9"/>
			<path class="st1" d="M106.6,104.1c0-0.3,0.3-0.6,0.6-0.6h1c0.3,0,0.6,0.3,0.6,0.6v21.4c0,0.3-0.3,0.6-0.6,0.6h-1
				c-0.3,0-0.6-0.3-0.6-0.6V104.1z"/>
			<path class="st1" d="M113.9,115.1h-1.6c-0.4,0-0.6-0.3-0.6-0.6v-0.7c0-0.4,0.3-0.6,0.6-0.6h1.6v-3.6c0-0.3,0.3-0.6,0.6-0.6l1-0.1
				c0.3,0,0.6,0.3,0.6,0.6v3.7h3.8c0.4,0,0.6,0.3,0.6,0.6v0.7c0,0.3-0.3,0.6-0.6,0.6h-3.8v7.6c0,1.3,0.3,1.6,1.1,1.6
				c0.8,0,1.9-0.5,2.4-0.7c0.5-0.3,0.6-0.1,0.8,0.2l0.5,0.8c0.2,0.4,0.1,0.6-0.2,0.8c-0.5,0.3-2.2,1.1-3.7,1.1c-2.6,0-3-1.5-3-3.6
				V115.1z"/>
			<path class="st1" d="M124.4,115.1h-1.6c-0.4,0-0.6-0.3-0.6-0.6v-0.7c0-0.4,0.3-0.6,0.6-0.6h1.6v-3.6c0-0.3,0.3-0.6,0.6-0.6l1-0.1
				c0.3,0,0.6,0.3,0.6,0.6v3.7h3.7c0.3,0,0.6,0.3,0.6,0.6v0.7c0,0.3-0.3,0.6-0.6,0.6h-3.7v7.6c0,1.3,0.3,1.6,1.1,1.6
				c0.8,0,1.9-0.5,2.4-0.7c0.5-0.3,0.6-0.1,0.8,0.2l0.5,0.8c0.2,0.4,0.1,0.6-0.2,0.8c-0.5,0.3-2.2,1.1-3.7,1.1c-2.6,0-3-1.5-3-3.6
				V115.1z"/>
			<path class="st1" d="M134.3,113.8c0-0.3,0.3-0.6,0.6-0.6h1c0.3,0,0.6,0.3,0.6,0.6v11.7c0,0.3-0.3,0.6-0.6,0.6h-1
				c-0.3,0-0.6-0.3-0.6-0.6V113.8z M133.8,105.7c0-0.9,0.7-1.6,1.5-1.6c0.9,0,1.6,0.7,1.6,1.6c0,0.8-0.7,1.5-1.6,1.5
				C134.5,107.2,133.8,106.5,133.8,105.7"/>
		</g>
		<path class="st1" d="M68.4,42.5c-0.8-1.7,0-3,1.8-3h7.1c0.9,0,2.1,0.7,2.4,1.6L88.4,70h0.1l14-30.5c0.3-0.7,1.2-1.3,2.2-1.3h0.8
			c1.2,0,2,0.7,2.2,1.3l13.9,30.6h0.1l8.6-29.1c0.7-1.6,2.6-1.6,4.1-1.6h5.1c1.8,0,2.8,1.3,2,3l-15.3,49.4c-0.3,0.8-1.2,1.3-2.4,1.3
			h-0.5c-1,0-2-0.5-2.2-1.2l-16.1-35h-0.1L89,92c-0.3,0.7-1.1,1.2-2.1,1.2h-0.7c-1.1,0-2-0.5-2.2-1.3L68.4,42.5z"/>
	</g>
</g>
</svg>
