<?xml version="1.0" encoding="UTF-8" standalone="no"?>
<!-- Created with Inkscape (http://www.inkscape.org/) -->

<svg
   xmlns:osb="http://www.openswatchbook.org/uri/2009/osb"
   xmlns:dc="http://purl.org/dc/elements/1.1/"
   xmlns:cc="http://creativecommons.org/ns#"
   xmlns:rdf="http://www.w3.org/1999/02/22-rdf-syntax-ns#"
   xmlns:svg="http://www.w3.org/2000/svg"
   xmlns="http://www.w3.org/2000/svg"
   xmlns:xlink="http://www.w3.org/1999/xlink"
   xmlns:sodipodi="http://sodipodi.sourceforge.net/DTD/sodipodi-0.dtd"
   xmlns:inkscape="http://www.inkscape.org/namespaces/inkscape"
   width="85.599998mm"
   height="53.98mm"
   viewBox="0 0 303.30707 191.26771"
   id="svg2"
   version="1.1"
   inkscape:version="0.92.2 5c3e80d, 2017-08-06"
   sodipodi:docname="yvr-compass.svg">
  <defs
     id="defs4">
    <linearGradient
       id="linearGradient3934"
       osb:paint="solid">
      <stop
         style="stop-color:#dddad3;stop-opacity:1;"
         offset="0"
         id="stop3932" />
    </linearGradient>
  </defs>
  <sodipodi:namedview
     id="base"
     pagecolor="#ffffff"
     bordercolor="#666666"
     borderopacity="1.0"
     inkscape:pageopacity="0"
     inkscape:pageshadow="2"
     inkscape:zoom="2.8284271"
     inkscape:cx="185.28963"
     inkscape:cy="70.948664"
     inkscape:document-units="px"
     inkscape:current-layer="layer1"
     showgrid="false"
     inkscape:showpageshadow="false"
     inkscape:window-width="1680"
     inkscape:window-height="1006"
     inkscape:window-x="0"
     inkscape:window-y="0"
     inkscape:window-maximized="1" />
  <metadata
     id="metadata7">
    <rdf:RDF>
      <cc:Work
         rdf:about="">
        <dc:format>image/svg+xml</dc:format>
        <dc:type
           rdf:resource="http://purl.org/dc/dcmitype/StillImage" />
        <dc:title></dc:title>
      </cc:Work>
    </rdf:RDF>
  </metadata>
  <g
     inkscape:label="Layer 1"
     inkscape:groupmode="layer"
     id="layer1"
     transform="translate(0,-861.09448)">
    <path
       style="fill:#d8d8d8;fill-opacity:1;fill-rule:evenodd;stroke:none;stroke-width:1px;stroke-linecap:butt;stroke-linejoin:miter;stroke-opacity:1"
       d="m 13.125,861.09448 h 275.1821 l 15,13.125 v 79.70521 l -5.65086,3.75 v 58.12501 l 5.65086,3.75 v 19.6875 l -13.125,13.125 H 13.125 L 0,1039.2372 v -20.625 l 5.6249999,-3.75 V 958.61219 L 0,952.98719 v -78.76771 z"
       id="rect3368"
       inkscape:connector-curvature="0"
       sodipodi:nodetypes="ccccccccccccccccc" />
    <path
       style="fill:#49b1e4;fill-opacity:1;stroke-width:0.5084396"
       d="m 103.76366,917.14083 c -0.21678,-0.35076 -0.48997,-4.88263 -0.60708,-10.07082 -0.23613,-10.4609 0.0724,-12.2295 2.1337,-12.2295 0.68953,0 1.39456,0.22796 1.56676,0.50658 0.19748,0.31952 0.85633,0.22565 1.7843,-0.25422 0.80916,-0.41844 2.36393,-0.7608 3.45503,-0.7608 7.42151,0 10.02208,11.23391 3.53705,15.2793 -1.58597,0.98934 -3.40495,1.0919 -7.24991,0.40878 -0.92505,-0.16435 -1.03983,0.16368 -1.2711,3.63263 -0.24494,3.6742 -0.30347,3.819 -1.60441,3.96954 -0.74261,0.0859 -1.52756,-0.13073 -1.74434,-0.48149 z m 9.82558,-10.87542 c 2.74807,-1.92482 2.26148,-6.56292 -0.82253,-7.84036 -1.99227,-0.82523 -3.4704,-0.29597 -4.6706,1.67237 -1.36521,2.23895 -1.22807,3.72885 0.50251,5.45944 1.64842,1.64842 3.31164,1.88456 4.99062,0.70855 z m -72.319761,6.03551 c -5.732238,-3.01664 -7.80371,-8.98999 -5.117983,-14.75837 1.849916,-3.97323 4.041491,-5.19794 10.824451,-6.049 6.528338,-0.81911 9.63405,-0.89349 10.037696,-0.24037 0.389265,0.62984 -0.623571,11.93612 -1.289988,14.40011 -0.672392,2.48608 -3.236416,5.37533 -5.806341,6.54282 -2.497115,1.13441 -6.596945,1.1841 -8.647835,0.10481 z m 8.382838,-2.347 c 2.102191,-1.11167 4.342479,-4.09876 3.769428,-5.02598 -0.5396,-0.87309 -3.220135,-0.3904 -4.687168,0.84402 -3.146866,2.64792 -7.210878,0.82382 -7.210878,-3.23654 0,-1.62217 0.302892,-2.26654 1.564329,-3.32797 0.860381,-0.72397 1.901333,-1.3163 2.313227,-1.3163 1.018885,0 3.421402,1.28057 4.229655,2.25445 0.696346,0.83905 3.341235,1.09658 3.790835,0.36911 0.597099,-0.96612 -1.632111,-3.93662 -3.781256,-5.03865 -2.64307,-1.35529 -5.020992,-1.4544 -7.4331,-0.30978 -6.059886,2.87561 -6.192247,11.67108 -0.222391,14.77807 2.828987,1.47233 4.896312,1.47491 7.667319,0.01 z m 12.229716,-0.68344 c -4.557749,-3.83509 -4.104171,-10.37206 0.95631,-13.78232 4.099305,-2.76252 9.281197,-0.65159 10.983785,4.47442 1.083668,3.26261 0.342933,6.08201 -2.289535,8.71448 -1.802918,1.80292 -2.119992,1.92508 -4.996526,1.92508 -2.571666,0 -3.328959,-0.21668 -4.654034,-1.33166 z m 7.478736,-3.56796 c 2.00158,-2.20169 1.217981,-6.21927 -1.426682,-7.31472 -1.905297,-0.7892 -3.396313,-0.23272 -4.580664,1.70962 -1.673952,2.74528 -1.126168,5.27039 1.444172,6.65716 1.697154,0.91567 3.059932,0.60148 4.563174,-1.05206 z m 7.481577,4.27364 c -0.146491,-0.38175 -0.202389,-3.88624 -0.124217,-7.78776 l 0.142125,-7.09367 2.542198,-0.0962 c 1.398209,-0.0529 3.323817,-0.25606 4.279134,-0.45144 1.245251,-0.25467 2.220697,-0.0947 3.445859,0.56509 1.611652,0.86793 1.810406,0.87192 3.491821,0.0701 2.354889,-1.12297 4.683174,-1.07206 6.680994,0.14609 2.70631,1.65013 3.25656,3.35148 3.09245,9.56169 l -0.14423,5.45786 -1.47015,0.16783 c -0.83503,0.0953 -1.65536,-0.12434 -1.89887,-0.50844 -0.23579,-0.37195 -0.43222,-2.79265 -0.4365,-5.37933 -0.007,-4.05805 -0.15081,-4.8461 -1.05067,-5.74596 -1.208486,-1.20848 -2.781868,-0.96883 -4.168617,0.63496 -0.71088,0.82214 -0.889769,1.98686 -0.889769,5.79319 0,4.69388 -0.01932,4.769 -1.308327,5.09253 -0.719574,0.1806 -1.496704,0.12776 -1.726941,-0.11743 -0.230242,-0.24518 -0.511368,-2.7064 -0.624725,-5.46937 -0.185473,-4.52079 -0.32505,-5.11991 -1.394558,-5.98594 -0.757275,-0.61321 -1.57779,-0.84605 -2.26158,-0.64179 -2.225278,0.66472 -2.587739,1.54958 -2.852662,6.96406 l -0.25422,5.19569 -1.401102,0.16116 c -0.838996,0.0965 -1.50795,-0.11729 -1.667443,-0.53292 z m 47.312694,-1.53489 c -1.60435,-1.61676 -2.23041,-2.71295 -2.48637,-4.3534 -0.46591,-2.98609 0.38246,-5.76861 2.34332,-7.68572 1.93232,-1.88919 3.26704,-2.30651 5.85447,-1.83048 1.0479,0.19278 3.22687,0.32303 4.84215,0.28942 l 2.93688,-0.0611 -0.14046,7.76755 c -0.1291,7.1394 -0.21782,7.7824 -1.09706,7.95122 -0.52613,0.10102 -1.49656,-0.10531 -2.15652,-0.45851 -0.92868,-0.49701 -1.49366,-0.50835 -2.4993,-0.0501 -0.71465,0.32562 -2.23389,0.59203 -3.3761,0.59203 -1.7679,0 -2.39561,-0.32134 -4.22101,-2.16087 z m 7.43894,-1.94757 c 2.80993,-1.50383 2.74389,-6.38142 -0.10634,-7.85534 -2.07364,-1.07232 -2.90841,-0.93778 -4.58519,0.739 -1.66454,1.66453 -1.88882,3.37856 -0.73425,5.61126 1.06342,2.05642 3.25807,2.6652 5.42578,1.50508 z m 11.50332,3.31588 c -1.46766,-0.79646 -2.42787,-2.17902 -2.42787,-3.49575 0,-1.11487 2.37871,-1.02904 4.73202,0.17075 2.01829,1.02898 3.48099,0.92713 4.51115,-0.31414 0.51747,-0.62351 0.45637,-0.8919 -0.33474,-1.47037 -0.53227,-0.38921 -1.43882,-0.70892 -2.01457,-0.71048 -3.487,-0.009 -6.89386,-2.16606 -6.89386,-4.36396 0,-3.64203 2.77487,-5.56884 7.46035,-5.18028 2.44473,0.20274 3.09881,0.48448 4.33398,1.86688 1.83707,2.05604 1.43262,2.78978 -1.30371,2.3652 -4.21619,-0.6542 -6.16889,-0.58121 -6.16889,0.2306 0,0.71458 1.81369,1.46138 5.50952,2.2686 3.30196,0.72119 4.88125,4.23442 3.06751,6.82389 -1.70728,2.43749 -7.47625,3.4342 -10.47089,1.80906 z m 15.13099,-0.78543 c -2.34804,-2.0616 -2.40823,-3.51238 -0.1448,-3.49023 0.90883,0.009 2.09655,0.35209 2.63937,0.76265 1.29187,0.97712 4.05348,0.95577 4.87799,-0.0377 0.94572,-1.13952 0.13063,-1.70878 -3.69667,-2.5818 -1.81689,-0.41443 -3.79162,-1.20832 -4.38828,-1.7642 -1.55984,-1.45321 -1.44024,-4.03608 0.26589,-5.74221 1.6664,-1.66641 3.04231,-2.03438 6.40035,-1.71172 2.12284,0.20398 2.8816,0.5532 4.05475,1.86617 2.35366,2.63421 1.62718,2.91083 -4.71594,1.7957 -1.29032,-0.22684 -1.98871,-0.0998 -2.43978,0.44366 -0.81802,0.98566 -0.35161,1.2673 3.64128,2.19878 3.83997,0.8958 5.43648,2.25834 5.43648,4.63976 0,1.3029 -0.43557,2.17732 -1.7287,3.47045 -1.61488,1.61488 -1.94846,1.72869 -5.0667,1.72869 -3.00865,0 -3.51535,-0.1557 -5.13524,-1.57799 z"
       id="path2356"
       inkscape:connector-curvature="0" />
  </g>
</svg>
