<?xml version="1.0" encoding="UTF-8"?>
<svg xmlns="http://www.w3.org/2000/svg" width="253" height="160" viewBox="0 0 166.4 105.92">
  <path d="m5.059,102.37c-0.722,-0.358 -1.254,-0.676 -1.68,-1.455C3.066,100.343 3.012,87.586 3.012,52.457V4.803c0,0 0.382,-1.035 0.713,-1.412C4.056,3.014 4.999,2.541 4.999,2.541h77.984l76.974,0.056c0,0 1.692,0.647 2.033,0.999 0.341,0.352 1.079,1.672 1.079,1.672l-0.056,46.957V100.359c0,0 -0.058,0.658 -0.535,1.155 -0.608,0.633 -1.761,0.882 -2.025,1.096 -0.374,0.304 -17.398,0.392 -77.28,0.4 -76.564,0.01 -76.804,0.008 -78.113,-0.64z" fill="#214b87" stroke-width="0.31999999"/>
  <path d="M76.476,87.927C76.441,77.153 76.579,44.043 76.666,42.24c0.064,-1.32 0.12,-2.508 0.125,-2.64 0.005,-0.132 2.225,-0.24 4.934,-0.24h4.925l0.197,0.786c0.108,0.432 0.342,1.167 0.519,1.633l0.322,0.847 1.311,-1.184c2.068,-1.868 4.204,-2.715 6.86,-2.719 2.767,-0.004 4.242,0.638 6.485,2.823 1.713,1.669 3.693,5.2 4.425,7.894 0.761,2.797 0.896,7.965 0.293,11.155 -1.539,8.137 -6.049,13.226 -12.023,13.567 -2.234,0.128 -2.549,0.062 -4.56,-0.959 -1.188,-0.603 -2.19,-1.084 -2.227,-1.07 -0.037,0.014 -0.145,3.842 -0.24,8.506l-0.173,8.48 -5.68,0.087 -5.68,0.087 -0.004,-1.367z" fill="#f7a421" stroke-width="0.31999999"/>
  <path d="m92.811,63.994c0.335,-0.179 1.007,-1.005 1.494,-1.836 0.78,-1.331 0.899,-1.904 1.008,-4.85 0.161,-4.353 -0.278,-6.317 -1.726,-7.721 -2.189,-2.122 -4.652,-1.047 -5.149,2.247 -0.12,0.795 -0.231,3.548 -0.246,6.119 -0.03,4.938 0.108,5.475 1.556,6.062 0.918,0.372 2.345,0.362 3.062,-0.021z" fill="#214b87" stroke-width="0.31999999"/>
  <path d="m114.369,81.655c-2.229,-0.771 -3.983,-2.242 -5.093,-4.272 -0.783,-1.432 -0.93,-2.061 -0.92,-3.944 0.02,-4.078 2.241,-7.184 6.023,-8.426 2.629,-0.863 3.39,-0.866 5.886,-0.023 4.295,1.45 6.847,5.91 5.823,10.175 -0.799,3.331 -3.175,5.736 -6.556,6.636 -2.119,0.564 -3.192,0.534 -5.163,-0.148z" fill="#f7a421" stroke-width="0.31999999"/>
  <path d="m41.612,73.883c-1.218,-0.37 -2.569,-1.223 -3.948,-2.49l-0.896,-0.824 -1.48,1.544c-1.286,1.342 -1.603,1.519 -2.424,1.355C32.345,73.365 30.619,73.28 29.028,73.28h-2.892l0.211,-17.04c0.116,-9.372 0.211,-20.532 0.212,-24.8l0.001,-7.76h5.755,5.755l0.085,9.116 0.085,9.116 0.986,-0.922c1.877,-1.755 3.575,-2.415 6.214,-2.416 4.781,-0.002 8.125,2.788 10.343,8.626 1.264,3.329 1.599,5.623 1.377,9.44 -0.337,5.802 -1.465,9.05 -4.445,12.801 -1.597,2.011 -2.396,2.715 -4.01,3.533 -2.235,1.133 -5.134,1.505 -7.093,0.909z" fill="#f7a421" stroke-width="0.31999999"/>
  <path d="M42.014,63.949C43.9,62.941 44.876,60.634 45.056,56.766 45.286,51.836 43.851,48.512 41.492,48.512c-1.431,0 -2.538,0.967 -3.045,2.657 -0.212,0.709 -0.365,3.436 -0.363,6.469l0.004,5.243 1.036,0.7c1.188,0.803 1.908,0.895 2.89,0.369z" fill="#214b87" stroke-width="0.31999999"/>
  <path d="M60.301,73.174C60.06,72.522 60.629,39.196 60.88,39.28c0.132,0.044 2.76,0.08 5.84,0.08h5.6v15.153c0,8.334 -0.093,16.043 -0.207,17.131l-0.207,1.978 -5.733,-0.038c-4.047,-0.027 -5.774,-0.148 -5.872,-0.411z" fill="#f7a421" stroke-width="0.31999999"/>
  <path d="m127.2,62.175c-0.528,-0.286 -2.965,-1.367 -5.415,-2.402 -2.45,-1.035 -4.556,-1.945 -4.681,-2.022 -0.202,-0.125 0.973,-3.816 1.881,-5.911 0.191,-0.44 1.735,-4.544 3.431,-9.12 3.288,-8.87 3.84,-10.35 5.733,-15.36 0.665,-1.76 1.557,-4.136 1.981,-5.28 0.425,-1.144 0.983,-2.553 1.24,-3.131 0.258,-0.578 0.469,-1.262 0.469,-1.52 0,-0.258 0.153,-0.469 0.341,-0.469 0.392,0 15.694,6.391 16.062,6.709 0.134,0.116 -3.623,7.977 -8.349,17.471 -4.726,9.493 -9.067,18.232 -9.647,19.42 -1.132,2.317 -1.444,2.483 -3.047,1.615z" fill="#f7a421" stroke-width="0.31999999"/>
  <path d="m65.12,34.985c-2.159,-0.475 -3.584,-1.69 -4.47,-3.81 -0.716,-1.713 -0.593,-3.279 0.397,-5.095 2.138,-3.92 8.106,-4.212 10.702,-0.523 3.217,4.572 -1.06,10.654 -6.629,9.428z" fill="#f7a421" stroke-width="0.31999999"/>
</svg>
