<?xml version="1.0" encoding="UTF-8" standalone="no"?>
<svg
   xmlns:dc="http://purl.org/dc/elements/1.1/"
   xmlns:cc="http://creativecommons.org/ns#"
   xmlns:rdf="http://www.w3.org/1999/02/22-rdf-syntax-ns#"
   xmlns:svg="http://www.w3.org/2000/svg"
   xmlns="http://www.w3.org/2000/svg"
   xmlns:sodipodi="http://sodipodi.sourceforge.net/DTD/sodipodi-0.dtd"
   xmlns:inkscape="http://www.inkscape.org/namespaces/inkscape"
   id="Layer_1"
   data-name="Layer 1"
   viewBox="0 0 61 49"
   version="1.1"
   sodipodi:docname="city_union.svg"
   width="61"
   height="49"
   inkscape:version="0.92.2 5c3e80d, 2017-08-06">
  <metadata
     id="metadata21">
    <rdf:RDF>
      <cc:Work
         rdf:about="">
        <dc:format>image/svg+xml</dc:format>
        <dc:type
           rdf:resource="http://purl.org/dc/dcmitype/StillImage" />
        <dc:title>metrodroid_Artboard 1</dc:title>
      </cc:Work>
    </rdf:RDF>
  </metadata>
  <sodipodi:namedview
     pagecolor="#ffffff"
     bordercolor="#666666"
     borderopacity="1"
     objecttolerance="10"
     gridtolerance="10"
     guidetolerance="10"
     inkscape:pageopacity="0"
     inkscape:pageshadow="2"
     inkscape:window-width="892"
     inkscape:window-height="607"
     id="namedview19"
     showgrid="false"
     inkscape:zoom="3.2777778"
     inkscape:cx="36"
     inkscape:cy="36"
     inkscape:window-x="0"
     inkscape:window-y="0"
     inkscape:window-maximized="0"
     inkscape:current-layer="Layer_1" />
  <defs
     id="defs4">
    <style
       id="style2">.cls-1{font-size:11.57px;fill:#b0484b;font-family:TimesNewRomanPS-BoldMT, Times New Roman;font-weight:700;}.cls-2{fill:#5290b1;}</style>
  </defs>
  <title
     id="title6">metrodroid_Artboard 1</title>
  <text
     class="cls-1"
     id="text8"
     style="font-weight:700;font-size:11.56999969px;font-family:TimesNewRomanPS-BoldMT, 'Times New Roman';fill:#b0484b"
     x="3.8093221"
     y="43.033897">City Union</text>
  <polygon
     class="cls-2"
     points="17.55,20.33 24.54,30.05 42.83,17.33 37.9,15.4 25.85,24.19 23.71,21.59 34.34,13.8 30.03,11.81 "
     id="polygon10"
     style="fill:#5290b1"
     transform="translate(-2.440678,-8.9661017)" />
  <polygon
     class="cls-2"
     points="32.63,41.84 43.66,33.83 43.66,32.47 33.08,39.96 27.16,32.06 43.53,20.09 43.53,18.35 43.37,18.51 42.83,18.89 25.15,31.55 "
     id="polygon12"
     style="fill:#5290b1"
     transform="translate(-2.440678,-8.9661017)" />
  <polygon
     class="cls-2"
     points="33.3,38.46 43.66,31.23 43.66,29.8 33.51,36.7 30,32.06 43.66,22.26 43.66,20.68 43.24,21.02 41.79,22.07 28.5,31.88 "
     id="polygon14"
     style="fill:#5290b1"
     transform="translate(-2.440678,-8.9661017)" />
  <polygon
     class="cls-2"
     points="31.18,32.25 33.62,35.52 43.66,28.59 43.66,26.93 34.05,33.78 33,32.33 43.66,24.8 43.66,23.2 "
     id="polygon16"
     style="fill:#5290b1"
     transform="translate(-2.440678,-8.9661017)" />
</svg>
