<?xml version="1.0" encoding="UTF-8"?>
<svg xmlns="http://www.w3.org/2000/svg" width="384" height="248" viewBox="0 0 96 62.08">
  <g transform="translate(96, 0) rotate(90)">
  <path d="m8.78,90a2.39,2.39 0,0 1,-2.39 2.4,2.39 2.39,0 0,1 -2.39,-2.4 2.39,2.39 0,0 1,2.39 -2.4,2.39 2.39,0 0,1 2.39,2.4zM8.7,5.6a2.39,2.39 0,0 1,-2.39 2.39,2.39 2.39,0 0,1 -2.39,-2.39 2.39,2.39 0,0 1,2.39 -2.39,2.39 2.39,0 0,1 2.39,2.39zM59.7,5.59a2.39,2.39 0,0 1,-2.3 2.39,2.39 2.39,0 0,1 -2.4,-2.39 2.39,2.39 0,0 1,2.4 -2.39,2.39 2.39,0 0,1 2.3,2.39zM6.3,3.22h50.9v89.3h-50.9zM59.7,90.12a2.39,2.39 0,0 1,-2.39 2.39,2.39 2.39,0 0,1 -2.39,-2.39 2.39,2.39 0,0 1,2.39 -2.39,2.39 2.39,0 0,1 2.39,2.39zM3.9,5.52h55.8v84.6h-55.8z" fill="#00adef" stroke-width="1.44"/>
  <path d="m40.5,45.6c-0.0133,-1.37 -0.92,-2.15 -2.53,-2.15 -1.63,0 -2.68,0.84 -2.68,2.13 0,1.09 0.56,1.61 2.21,2.01l1.04,0.253c0.773,0.187 1.08,0.467 1.08,0.973 0,0.653 -0.653,1.09 -1.63,1.09 -0.6,0 -1.11,-0.173 -1.39,-0.467 -0.173,-0.2 -0.253,-0.4 -0.32,-0.893h-1.17c0.0533,1.61 0.96,2.39 2.79,2.39 1.76,0 2.88,-0.867 2.88,-2.21 0,-1.04 -0.587,-1.61 -1.97,-1.95l-1.07,-0.253c-0.907,-0.213 -1.29,-0.507 -1.29,-1 0,-0.64 0.573,-1.05 1.48,-1.05 0.893,0 1.37,0.387 1.4,1.12z" fill="#fff"/>
  <path d="m46.5,45.6c-0.0133,-1.37 -0.92,-2.15 -2.53,-2.15 -1.63,0 -2.68,0.84 -2.68,2.13 0,1.09 0.56,1.61 2.21,2.01l1.04,0.253c0.773,0.187 1.08,0.467 1.08,0.973 0,0.653 -0.653,1.09 -1.63,1.09 -0.6,0 -1.11,-0.173 -1.39,-0.467 -0.173,-0.2 -0.253,-0.4 -0.32,-0.893h-1.17c0.0533,1.61 0.96,2.39 2.79,2.39 1.76,0 2.88,-0.867 2.88,-2.21 0,-1.04 -0.587,-1.61 -1.97,-1.95l-1.07,-0.253c-0.907,-0.213 -1.29,-0.507 -1.29,-1 0,-0.64 0.573,-1.05 1.48,-1.05 0.893,0 1.37,0.387 1.4,1.12z" fill="#fff"/>
  <path d="m23.6,50c-0.12,0.0267 -0.173,0.0267 -0.24,0.0267 -0.387,0 -0.6,-0.2 -0.6,-0.547v-4.11c0,-1.24 -0.907,-1.91 -2.63,-1.91 -1.01,0 -1.85,0.293 -2.32,0.813 -0.32,0.36 -0.453,0.76 -0.48,1.45h1.12c0.0933,-0.853 0.6,-1.24 1.64,-1.24 1,0 1.56,0.373 1.56,1.04v0.293c0,0.467 -0.28,0.667 -1.16,0.773 -1.57,0.2 -1.81,0.253 -2.24,0.427 -0.813,0.333 -1.23,0.96 -1.23,1.87 0,1.27 0.88,2.07 2.29,2.07 0.88,0 1.59,-0.307 2.37,-1.03 0.08,0.707 0.427,1.03 1.15,1.03 0.227,0 0.4,-0.0267 0.76,-0.12zM21.65,48.45c0,0.373 -0.107,0.6 -0.44,0.907 -0.453,0.413 -1,0.627 -1.65,0.627 -0.867,0 -1.37,-0.413 -1.37,-1.12 0,-0.733 0.493,-1.11 1.68,-1.28 1.17,-0.16 1.41,-0.213 1.79,-0.387z" fill="#fff"/>
  <path d="m355,555c18.7757,-0 36.259,-7.3236 49.542,-20.5707 13.283,-13.283 20.5707,-30.9099 20.5707,-49.542 0,-18.7757 -7.3236,-36.259 -20.5707,-49.542 -13.283,-13.642 -30.7663,-20.822 -49.542,-20.822 -38.772,-0 -70.364,31.5202 -70.364,70.364 0,18.7757 7.3236,36.259 20.5707,49.542 13.642,13.1394 31.1253,20.463 49.901,20.463m-59.235,-70.364c0,-15.8319 6.1389,-30.6945 17.3397,-42.003 11.3085,-10.77 26.1711,-17.232 42.003,-17.232s30.6945,6.1748 42.003,17.3397c11.129,11.488 17.232,26.207 17.232,42.003 0,32.669 -26.6019,59.235 -59.235,59.235 -15.8319,-0 -30.6945,-6.1748 -42.003,-17.3397 -11.2008,-11.1649 -17.3397,-26.0634 -17.3397,-42.003" fill="#00adef"/>
  <path d="m323,495c0.088,3.4213 2.1073,10.4828 11.3444,10.4828 6.3902,-0 10.9854,-3.5613 10.9854,-7.7903s-2.5848,-8.0057 -9.9443,-9.4058l-7.7544,-1.5437c-9.9084,-2.2545 -15.9396,-7.5031 -15.9396,-17.0166 0,-9.6212 6.8928,-18.9552 22.8324,-18.9552 17.95,-0 21.7195,13.5702 21.7195,18.9193l-12.2778,-0s0.438,-9.0827 -10.1956,-9.0827c-5.8517,-0 -9.7648,2.574 -9.7648,8.1134 0.0179,4.8465 4.5593,6.6415 7.18,7.2159l11.488,2.4771c9.0827,2.1827 15.3293,7.0364 15.3293,17.6269 0,15.2934 -13.5702,19.6373 -23.5863,19.6373 -17.6269,-0 -23.6581,-11.8111 -23.6581,-20.7502l12.2419,-0" fill="#00adef"/>
  <path d="m378,503l23.5145,-0l0,10.8059l-36.259,-0l0,-62.466l12.7445,-0l0,51.696" fill="#00adef"/>
  <defs>
    <clipPath id="clip0">
      <path d="m468.0999,414.642l-226.17,-0l0,182.372l224.375,-0z M 0,0"/>
    </clipPath>
  </defs>
  <path d="m0 0c0.0619,-0.764 0.0928,-1.53 0.0928,-2.31 0,-7.52,-2.93,-14.6,-8.24,-19.9,-5.32,-5.32,-12.4,-8.25,-19.9,-8.25,-7.52 0,-14.6 2.93,-19.9 8.25,-5.32 5.32,-8.25 12.4,-8.25 19.9 0 0.775 0.0341 1.54 0.096 2.31h-3.09c-0.0555,-0.765,-0.0832,-1.53,-0.0832,-2.31 0,-8.34 3.25,-16.2 9.15,-22.1s13.7,-9.15 22.1,-9.15c8.34 0 16.2 3.25 22.1 9.15s9.15 13.7 9.15 22.1c0 0.774,-0.0267 1.54,-0.0832 2.31h-3.1" fill="#00adef" clip-path="url(#clip0)"/>
  <path d="m435,477c0.2757,2.7356 0.42,5.4927 0.42,8.2929 0,21.3964 -8.3288,41.644 -23.4786,56.722 -15.0062,15.078 -35.1102,23.335 -56.722,23.335 -21.3964,-0 -41.644,-8.3288 -56.722,-23.4786 -15.1498,-15.1498 -23.4786,-35.2538 -23.4786,-56.722 0,-2.7894 0.1569,-5.5645 0.4236,-8.2929l-11.0931,-0c-0.2488,2.7428 -0.3769,5.4927 -0.3769,8.2929 0,24.3761 9.4776,47.388 26.7096,64.62s40.208,26.7096 64.62,26.7096c24.3402,-0 47.388,-9.4776 64.62,-26.7096s26.7096,-40.208 26.7096,-64.62c0,-2.7822 -0.1303,-5.5286 -0.3769,-8.2929l-11.129,-0" fill="#00adef"/>
  <path d="m374,530c18.7757,-0 36.259,-7.3236 49.542,-20.5707 13.283,-13.283 20.5707,-30.9099 20.5707,-49.542 0,-18.7757 -7.3236,-36.259 -20.5707,-49.542 -13.283,-13.642 -30.7663,-20.822 -49.542,-20.822 -38.772,-0 -70.364,31.5202 -70.364,70.364 0,18.7757 7.3236,36.259 20.5707,49.542 13.642,13.1394 31.1253,20.463 49.901,20.463m-59.235,-70.364c0,-15.8319 6.1389,-30.6945 17.3397,-42.003 11.3085,-10.77 26.1711,-17.232 42.003,-17.232s30.6945,6.1748 42.003,17.3397c11.129,11.488 17.232,26.207 17.232,42.003 0,32.669 -26.6019,59.235 -59.235,59.235 -15.8319,-0 -30.6945,-6.1748 -42.003,-17.3397 -11.2008,-11.1649 -17.3397,-26.0634 -17.3397,-42.003" fill="#00adef"/>
  <path d="m341,469c0.088,3.4213 2.1073,10.4828 11.3444,10.4828 6.3902,-0 10.9854,-3.5613 10.9854,-7.7903s-2.5848,-8.0057 -9.9443,-9.4058l-7.7544,-1.5437c-9.9084,-2.2545 -15.9396,-7.5031 -15.9396,-17.0166 0,-9.6212 6.8928,-18.9552 22.8324,-18.9552 17.95,-0 21.7195,13.5702 21.7195,18.9193l-12.2778,-0s0.438,-9.0827 -10.1956,-9.0827c-5.8517,-0 -9.7648,2.574 -9.7648,8.1134 0.0179,4.8465 4.5593,6.6415 7.18,7.2159l11.488,2.4771c9.0827,2.1827 15.3293,7.0364 15.3293,17.6269 0,15.2934 -13.5702,19.6373 -23.5863,19.6373 -17.6269,-0 -23.6581,-11.8111 -23.6581,-20.7502l12.2419,-0" fill="#00adef"/>
  <path d="m397,478l23.5145,-0l0,10.8059l-36.259,-0l0,-62.466l12.7445,-0l0,51.696" fill="#00adef"/>
  <defs>
    <clipPath id="clip1">
      <path d="m488.0999,388.642l-226.17,-0l0,182.372l224.375,-0z M 0,0"/>
    </clipPath>
  </defs>
  <path d="m0 0c0.0619,-0.764 0.0928,-1.53 0.0928,-2.31 0,-7.52,-2.93,-14.6,-8.24,-19.9,-5.32,-5.32,-12.4,-8.25,-19.9,-8.25,-7.52 0,-14.6 2.93,-19.9 8.25,-5.32 5.32,-8.25 12.4,-8.25 19.9 0 0.775 0.0341 1.54 0.096 2.31h-3.09c-0.0555,-0.765,-0.0832,-1.53,-0.0832,-2.31 0,-8.34 3.25,-16.2 9.15,-22.1s13.7,-9.15 22.1,-9.15c8.34 0 16.2 3.25 22.1 9.15s9.15 13.7 9.15 22.1c0 0.774,-0.0267 1.54,-0.0832 2.31h-3.1" fill="#00adef" clip-path="url(#clip1)"/>
  <path d="m453,451c0.2757,2.7356 0.42,5.4927 0.42,8.2929 0,21.3964 -8.3288,41.644 -23.4786,56.722 -15.0062,15.078 -35.1102,23.335 -56.722,23.335 -21.3964,-0 -41.644,-8.3288 -56.722,-23.4786 -15.1498,-15.1498 -23.4786,-35.2538 -23.4786,-56.722 0,-2.7894 0.1569,-5.5645 0.4236,-8.2929l-11.0931,-0c-0.2488,2.7428 -0.3769,5.4927 -0.3769,8.2929 0,24.3761 9.4776,47.388 26.7096,64.62s40.208,26.7096 64.62,26.7096c24.3402,-0 47.388,-9.4776 64.62,-26.7096s26.7096,-40.208 26.7096,-64.62c0,-2.7822 -0.1303,-5.5286 -0.3769,-8.2929l-11.129,-0" fill="#00adef"/>
  <path d="m342,529c18.7757,-0 36.259,-7.3236 49.542,-20.5707 13.283,-13.283 20.5707,-30.9099 20.5707,-49.542 0,-18.7757 -7.3236,-36.259 -20.5707,-49.542 -13.283,-13.642 -30.7663,-20.822 -49.542,-20.822 -38.772,-0 -70.364,31.5202 -70.364,70.364 0,18.7757 7.3236,36.259 20.5707,49.542 13.642,13.1394 31.1253,20.463 49.901,20.463m-59.235,-70.364c0,-15.8319 6.1389,-30.6945 17.3397,-42.003 11.3085,-10.77 26.1711,-17.232 42.003,-17.232s30.6945,6.1748 42.003,17.3397c11.129,11.488 17.232,26.207 17.232,42.003 0,32.669 -26.6019,59.235 -59.235,59.235 -15.8319,-0 -30.6945,-6.1748 -42.003,-17.3397 -11.2008,-11.1649 -17.3397,-26.0634 -17.3397,-42.003" fill="#00adef"/>
  <path d="m310,468c0.088,3.4213 2.1073,10.4828 11.3444,10.4828 6.3902,-0 10.9854,-3.5613 10.9854,-7.7903s-2.5848,-8.0057 -9.9443,-9.4058l-7.7544,-1.5437c-9.9084,-2.2545 -15.9396,-7.5031 -15.9396,-17.0166 0,-9.6212 6.8928,-18.9552 22.8324,-18.9552 17.95,-0 21.7195,13.5702 21.7195,18.9193l-12.2778,-0s0.438,-9.0827 -10.1956,-9.0827c-5.8517,-0 -9.7648,2.574 -9.7648,8.1134 0.0179,4.8465 4.5593,6.6415 7.18,7.2159l11.488,2.4771c9.0827,2.1827 15.3293,7.0364 15.3293,17.6269 0,15.2934 -13.5702,19.6373 -23.5863,19.6373 -17.6269,-0 -23.6581,-11.8111 -23.6581,-20.7502l12.2419,-0" fill="#00adef"/>
  <path d="m365,477l23.5145,-0l0,10.8059l-36.259,-0l0,-62.466l12.7445,-0l0,51.696" fill="#00adef"/>
  <defs>
    <clipPath id="clip2">
      <path d="m458.0999,388.642l-226.17,-0l0,182.372l224.375,-0z M 0,0"/>
    </clipPath>
  </defs>
  <path d="m0 0c0.0619,-0.764 0.0928,-1.53 0.0928,-2.31 0,-7.52,-2.93,-14.6,-8.24,-19.9,-5.32,-5.32,-12.4,-8.25,-19.9,-8.25,-7.52 0,-14.6 2.93,-19.9 8.25,-5.32 5.32,-8.25 12.4,-8.25 19.9 0 0.775 0.0341 1.54 0.096 2.31h-3.09c-0.0555,-0.765,-0.0832,-1.53,-0.0832,-2.31 0,-8.34 3.25,-16.2 9.15,-22.1s13.7,-9.15 22.1,-9.15c8.34 0 16.2 3.25 22.1 9.15s9.15 13.7 9.15 22.1c0 0.774,-0.0267 1.54,-0.0832 2.31h-3.1" fill="#00adef" clip-path="url(#clip2)"/>
  <path d="m422,450c0.2757,2.7356 0.42,5.4927 0.42,8.2929 0,21.3964 -8.3288,41.644 -23.4786,56.722 -15.0062,15.078 -35.1102,23.335 -56.722,23.335 -21.3964,-0 -41.644,-8.3288 -56.722,-23.4786 -15.1498,-15.1498 -23.4786,-35.2538 -23.4786,-56.722 0,-2.7894 0.1569,-5.5645 0.4236,-8.2929l-11.0931,-0c-0.2488,2.7428 -0.3769,5.4927 -0.3769,8.2929 0,24.3761 9.4776,47.388 26.7096,64.62s40.208,26.7096 64.62,26.7096c24.3402,-0 47.388,-9.4776 64.62,-26.7096s26.7096,-40.208 26.7096,-64.62c0,-2.7822 -0.1303,-5.5286 -0.3769,-8.2929l-11.129,-0" fill="#00adef"/>
  <path d="m342,529c18.7757,-0 36.259,-7.3236 49.542,-20.5707 13.283,-13.283 20.5707,-30.9099 20.5707,-49.542 0,-18.7757 -7.3236,-36.259 -20.5707,-49.542 -13.283,-13.642 -30.7663,-20.822 -49.542,-20.822 -38.772,-0 -70.364,31.5202 -70.364,70.364 0,18.7757 7.3236,36.259 20.5707,49.542 13.642,13.1394 31.1253,20.463 49.901,20.463m-59.235,-70.364c0,-15.8319 6.1389,-30.6945 17.3397,-42.003 11.3085,-10.77 26.1711,-17.232 42.003,-17.232s30.6945,6.1748 42.003,17.3397c11.129,11.488 17.232,26.207 17.232,42.003 0,32.669 -26.6019,59.235 -59.235,59.235 -15.8319,-0 -30.6945,-6.1748 -42.003,-17.3397 -11.2008,-11.1649 -17.3397,-26.0634 -17.3397,-42.003" fill="#00adef"/>
  <path d="m310,469c0.088,3.4213 2.1073,10.4828 11.3444,10.4828 6.3902,-0 10.9854,-3.5613 10.9854,-7.7903s-2.5848,-8.0057 -9.9443,-9.4058l-7.7544,-1.5437c-9.9084,-2.2545 -15.9396,-7.5031 -15.9396,-17.0166 0,-9.6212 6.8928,-18.9552 22.8324,-18.9552 17.95,-0 21.7195,13.5702 21.7195,18.9193l-12.2778,-0s0.438,-9.0827 -10.1956,-9.0827c-5.8517,-0 -9.7648,2.574 -9.7648,8.1134 0.0179,4.8465 4.5593,6.6415 7.18,7.2159l11.488,2.4771c9.0827,2.1827 15.3293,7.0364 15.3293,17.6269 0,15.2934 -13.5702,19.6373 -23.5863,19.6373 -17.6269,-0 -23.6581,-11.8111 -23.6581,-20.7502l12.2419,-0" fill="#00adef"/>
  <path d="m365,477l23.5145,-0l0,10.8059l-36.259,-0l0,-62.466l12.7445,-0l0,51.696" fill="#00adef"/>
  <defs>
    <clipPath id="clip3">
      <path d="m458.0999,388.642l-226.17,-0l0,182.372l224.375,-0z M 0,0"/>
    </clipPath>
  </defs>
  <path d="m0 0c0.0619,-0.764 0.0928,-1.53 0.0928,-2.31 0,-7.52,-2.93,-14.6,-8.24,-19.9,-5.32,-5.32,-12.4,-8.25,-19.9,-8.25,-7.52 0,-14.6 2.93,-19.9 8.25,-5.32 5.32,-8.25 12.4,-8.25 19.9 0 0.775 0.0341 1.54 0.096 2.31h-3.09c-0.0555,-0.765,-0.0832,-1.53,-0.0832,-2.31 0,-8.34 3.25,-16.2 9.15,-22.1s13.7,-9.15 22.1,-9.15c8.34 0 16.2 3.25 22.1 9.15s9.15 13.7 9.15 22.1c0 0.774,-0.0267 1.54,-0.0832 2.31h-3.1" fill="#00adef" clip-path="url(#clip3)"/>
  <path d="m422,451c0.2757,2.7356 0.42,5.4927 0.42,8.2929 0,21.3964 -8.3288,41.644 -23.4786,56.722 -15.0062,15.078 -35.1102,23.335 -56.722,23.335 -21.3964,-0 -41.644,-8.3288 -56.722,-23.4786 -15.1498,-15.1498 -23.4786,-35.2538 -23.4786,-56.722 0,-2.7894 0.1569,-5.5645 0.4236,-8.2929l-11.0931,-0c-0.2488,2.7428 -0.3769,5.4927 -0.3769,8.2929 0,24.3761 9.4776,47.388 26.7096,64.62s40.208,26.7096 64.62,26.7096c24.3402,-0 47.388,-9.4776 64.62,-26.7096s26.7096,-40.208 26.7096,-64.62c0,-2.7822 -0.1303,-5.5286 -0.3769,-8.2929l-11.129,-0" fill="#00adef"/>
  <path d="m342,529c18.7757,-0 36.259,-7.3236 49.542,-20.5707 13.283,-13.283 20.5707,-30.9099 20.5707,-49.542 0,-18.7757 -7.3236,-36.259 -20.5707,-49.542 -13.283,-13.642 -30.7663,-20.822 -49.542,-20.822 -38.772,-0 -70.364,31.5202 -70.364,70.364 0,18.7757 7.3236,36.259 20.5707,49.542 13.642,13.1394 31.1253,20.463 49.901,20.463m-59.235,-70.364c0,-15.8319 6.1389,-30.6945 17.3397,-42.003 11.3085,-10.77 26.1711,-17.232 42.003,-17.232s30.6945,6.1748 42.003,17.3397c11.129,11.488 17.232,26.207 17.232,42.003 0,32.669 -26.6019,59.235 -59.235,59.235 -15.8319,-0 -30.6945,-6.1748 -42.003,-17.3397 -11.2008,-11.1649 -17.3397,-26.0634 -17.3397,-42.003" fill="#00adef"/>
  <path d="m310,469c0.088,3.4213 2.1073,10.4828 11.3444,10.4828 6.3902,-0 10.9854,-3.5613 10.9854,-7.7903s-2.5848,-8.0057 -9.9443,-9.4058l-7.7544,-1.5437c-9.9084,-2.2545 -15.9396,-7.5031 -15.9396,-17.0166 0,-9.6212 6.8928,-18.9552 22.8324,-18.9552 17.95,-0 21.7195,13.5702 21.7195,18.9193l-12.2778,-0s0.438,-9.0827 -10.1956,-9.0827c-5.8517,-0 -9.7648,2.574 -9.7648,8.1134 0.0179,4.8465 4.5593,6.6415 7.18,7.2159l11.488,2.4771c9.0827,2.1827 15.3293,7.0364 15.3293,17.6269 0,15.2934 -13.5702,19.6373 -23.5863,19.6373 -17.6269,-0 -23.6581,-11.8111 -23.6581,-20.7502l12.2419,-0" fill="#00adef"/>
  <path d="m366,477l23.5145,-0l0,10.8059l-36.259,-0l0,-62.466l12.7445,-0l0,51.696" fill="#00adef"/>
  <defs>
    <clipPath id="clip4">
      <path d="m458.0999,388.642l-226.17,-0l0,182.372l224.375,-0z M 0,0"/>
    </clipPath>
  </defs>
  <path d="m0 0c0.0619,-0.764 0.0928,-1.53 0.0928,-2.31 0,-7.52,-2.93,-14.6,-8.24,-19.9,-5.32,-5.32,-12.4,-8.25,-19.9,-8.25,-7.52 0,-14.6 2.93,-19.9 8.25,-5.32 5.32,-8.25 12.4,-8.25 19.9 0 0.775 0.0341 1.54 0.096 2.31h-3.09c-0.0555,-0.765,-0.0832,-1.53,-0.0832,-2.31 0,-8.34 3.25,-16.2 9.15,-22.1s13.7,-9.15 22.1,-9.15c8.34 0 16.2 3.25 22.1 9.15s9.15 13.7 9.15 22.1c0 0.774,-0.0267 1.54,-0.0832 2.31h-3.1" fill="#00adef" clip-path="url(#clip4)"/>
  <path d="m422,451c0.2757,2.7356 0.42,5.4927 0.42,8.2929 0,21.3964 -8.3288,41.644 -23.4786,56.722 -15.0062,15.078 -35.1102,23.335 -56.722,23.335 -21.3964,-0 -41.644,-8.3288 -56.722,-23.4786 -15.1498,-15.1498 -23.4786,-35.2538 -23.4786,-56.722 0,-2.7894 0.1569,-5.5645 0.4236,-8.2929l-11.0931,-0c-0.2488,2.7428 -0.3769,5.4927 -0.3769,8.2929 0,24.3761 9.4776,47.388 26.7096,64.62s40.208,26.7096 64.62,26.7096c24.3402,-0 47.388,-9.4776 64.62,-26.7096s26.7096,-40.208 26.7096,-64.62c0,-2.7822 -0.1303,-5.5286 -0.3769,-8.2929l-11.129,-0" fill="#00adef"/>
  <path d="m342,529c18.7757,-0 36.259,-7.3236 49.542,-20.5707 13.283,-13.283 20.5707,-30.9099 20.5707,-49.542 0,-18.7757 -7.3236,-36.259 -20.5707,-49.542 -13.283,-13.642 -30.7663,-20.822 -49.542,-20.822 -38.772,-0 -70.364,31.5202 -70.364,70.364 0,18.7757 7.3236,36.259 20.5707,49.542 13.642,13.1394 31.1253,20.463 49.901,20.463m-59.235,-70.364c0,-15.8319 6.1389,-30.6945 17.3397,-42.003 11.3085,-10.77 26.1711,-17.232 42.003,-17.232s30.6945,6.1748 42.003,17.3397c11.129,11.488 17.232,26.207 17.232,42.003 0,32.669 -26.6019,59.235 -59.235,59.235 -15.8319,-0 -30.6945,-6.1748 -42.003,-17.3397 -11.2008,-11.1649 -17.3397,-26.0634 -17.3397,-42.003" fill="#00adef"/>
  <path d="m310,469c0.088,3.4213 2.1073,10.4828 11.3444,10.4828 6.3902,-0 10.9854,-3.5613 10.9854,-7.7903s-2.5848,-8.0057 -9.9443,-9.4058l-7.7544,-1.5437c-9.9084,-2.2545 -15.9396,-7.5031 -15.9396,-17.0166 0,-9.6212 6.8928,-18.9552 22.8324,-18.9552 17.95,-0 21.7195,13.5702 21.7195,18.9193l-12.2778,-0s0.438,-9.0827 -10.1956,-9.0827c-5.8517,-0 -9.7648,2.574 -9.7648,8.1134 0.0179,4.8465 4.5593,6.6415 7.18,7.2159l11.488,2.4771c9.0827,2.1827 15.3293,7.0364 15.3293,17.6269 0,15.2934 -13.5702,19.6373 -23.5863,19.6373 -17.6269,-0 -23.6581,-11.8111 -23.6581,-20.7502l12.2419,-0" fill="#00adef"/>
  <path d="m366,477l23.5145,-0l0,10.8059l-36.259,-0l0,-62.466l12.7445,-0l0,51.696" fill="#00adef"/>
  <defs>
    <clipPath id="clip5">
      <path d="m458.0999,388.642l-226.17,-0l0,182.372l224.375,-0z M 0,0"/>
    </clipPath>
  </defs>
  <path d="m0 0c0.0619,-0.764 0.0928,-1.53 0.0928,-2.31 0,-7.52,-2.93,-14.6,-8.24,-19.9,-5.32,-5.32,-12.4,-8.25,-19.9,-8.25,-7.52 0,-14.6 2.93,-19.9 8.25,-5.32 5.32,-8.25 12.4,-8.25 19.9 0 0.775 0.0341 1.54 0.096 2.31h-3.09c-0.0555,-0.765,-0.0832,-1.53,-0.0832,-2.31 0,-8.34 3.25,-16.2 9.15,-22.1s13.7,-9.15 22.1,-9.15c8.34 0 16.2 3.25 22.1 9.15s9.15 13.7 9.15 22.1c0 0.774,-0.0267 1.54,-0.0832 2.31h-3.1" fill="#00adef" clip-path="url(#clip5)"/>
  <path d="m422,451c0.2757,2.7356 0.42,5.4927 0.42,8.2929 0,21.3964 -8.3288,41.644 -23.4786,56.722 -15.0062,15.078 -35.1102,23.335 -56.722,23.335 -21.3964,-0 -41.644,-8.3288 -56.722,-23.4786 -15.1498,-15.1498 -23.4786,-35.2538 -23.4786,-56.722 0,-2.7894 0.1569,-5.5645 0.4236,-8.2929l-11.0931,-0c-0.2488,2.7428 -0.3769,5.4927 -0.3769,8.2929 0,24.3761 9.4776,47.388 26.7096,64.62s40.208,26.7096 64.62,26.7096c24.3402,-0 47.388,-9.4776 64.62,-26.7096s26.7096,-40.208 26.7096,-64.62c0,-2.7822 -0.1303,-5.5286 -0.3769,-8.2929l-11.129,-0" fill="#00adef"/>
  <path d="m342,529c18.7757,-0 36.259,-7.3236 49.542,-20.5707 13.283,-13.283 20.5707,-30.9099 20.5707,-49.542 0,-18.7757 -7.3236,-36.259 -20.5707,-49.542 -13.283,-13.642 -30.7663,-20.822 -49.542,-20.822 -38.772,-0 -70.364,31.5202 -70.364,70.364 0,18.7757 7.3236,36.259 20.5707,49.542 13.642,13.1394 31.1253,20.463 49.901,20.463m-59.235,-70.364c0,-15.8319 6.1389,-30.6945 17.3397,-42.003 11.3085,-10.77 26.1711,-17.232 42.003,-17.232s30.6945,6.1748 42.003,17.3397c11.129,11.488 17.232,26.207 17.232,42.003 0,32.669 -26.6019,59.235 -59.235,59.235 -15.8319,-0 -30.6945,-6.1748 -42.003,-17.3397 -11.2008,-11.1649 -17.3397,-26.0634 -17.3397,-42.003" fill="#00adef"/>
  <path d="m310,469c0.088,3.4213 2.1073,10.4828 11.3444,10.4828 6.3902,-0 10.9854,-3.5613 10.9854,-7.7903s-2.5848,-8.0057 -9.9443,-9.4058l-7.7544,-1.5437c-9.9084,-2.2545 -15.9396,-7.5031 -15.9396,-17.0166 0,-9.6212 6.8928,-18.9552 22.8324,-18.9552 17.95,-0 21.7195,13.5702 21.7195,18.9193l-12.2778,-0s0.438,-9.0827 -10.1956,-9.0827c-5.8517,-0 -9.7648,2.574 -9.7648,8.1134 0.0179,4.8465 4.5593,6.6415 7.18,7.2159l11.488,2.4771c9.0827,2.1827 15.3293,7.0364 15.3293,17.6269 0,15.2934 -13.5702,19.6373 -23.5863,19.6373 -17.6269,-0 -23.6581,-11.8111 -23.6581,-20.7502l12.2419,-0" fill="#00adef"/>
  <path d="m366,477l23.5145,-0l0,10.8059l-36.259,-0l0,-62.466l12.7445,-0l0,51.696" fill="#00adef"/>
  <defs>
    <clipPath id="clip6">
      <path d="m458.0999,388.642l-226.17,-0l0,182.372l224.375,-0z M 0,0"/>
    </clipPath>
  </defs>
  <path d="m0 0c0.0619,-0.764 0.0928,-1.53 0.0928,-2.31 0,-7.52,-2.93,-14.6,-8.24,-19.9,-5.32,-5.32,-12.4,-8.25,-19.9,-8.25,-7.52 0,-14.6 2.93,-19.9 8.25,-5.32 5.32,-8.25 12.4,-8.25 19.9 0 0.775 0.0341 1.54 0.096 2.31h-3.09c-0.0555,-0.765,-0.0832,-1.53,-0.0832,-2.31 0,-8.34 3.25,-16.2 9.15,-22.1s13.7,-9.15 22.1,-9.15c8.34 0 16.2 3.25 22.1 9.15s9.15 13.7 9.15 22.1c0 0.774,-0.0267 1.54,-0.0832 2.31h-3.1" fill="#00adef" clip-path="url(#clip6)"/>
  <path d="m422,451c0.2757,2.7356 0.42,5.4927 0.42,8.2929 0,21.3964 -8.3288,41.644 -23.4786,56.722 -15.0062,15.078 -35.1102,23.335 -56.722,23.335 -21.3964,-0 -41.644,-8.3288 -56.722,-23.4786 -15.1498,-15.1498 -23.4786,-35.2538 -23.4786,-56.722 0,-2.7894 0.1569,-5.5645 0.4236,-8.2929l-11.0931,-0c-0.2488,2.7428 -0.3769,5.4927 -0.3769,8.2929 0,24.3761 9.4776,47.388 26.7096,64.62s40.208,26.7096 64.62,26.7096c24.3402,-0 47.388,-9.4776 64.62,-26.7096s26.7096,-40.208 26.7096,-64.62c0,-2.7822 -0.1303,-5.5286 -0.3769,-8.2929l-11.129,-0" fill="#00adef"/>
  <path d="m51.7,88.6c0.8211,-0 1.5857,-0.3203 2.1666,-0.8996 0.5809,-0.5809 0.8996,-1.3518 0.8996,-2.1666 0,-0.8211 -0.3203,-1.5857 -0.8996,-2.1666 -0.5809,-0.5966 -1.3455,-0.9106 -2.1666,-0.9106 -1.6956,-0 -3.0772,1.3785 -3.0772,3.0772 0,0.8211 0.3203,1.5857 0.8996,2.1666 0.5966,0.5746 1.3612,0.8949 2.1823,0.8949m-2.5905,-3.0772c0,-0.6924 0.2685,-1.3424 0.7583,-1.8369 0.4946,-0.471 1.1445,-0.7536 1.8369,-0.7536s1.3424,0.27 1.8369,0.7583c0.4867,0.5024 0.7536,1.1461 0.7536,1.8369 0,1.4287 -1.1634,2.5905 -2.5905,2.5905 -0.6924,-0 -1.3424,-0.27 -1.8369,-0.7583 -0.4898,-0.4883 -0.7583,-1.1398 -0.7583,-1.8369" fill="#fff"/>
  <path d="m50.3,85.9c0.0038,0.1496 0.0922,0.4584 0.4961,0.4584 0.2795,-0 0.4804,-0.1557 0.4804,-0.3407s-0.113,-0.3501 -0.4349,-0.4113l-0.3391,-0.0675c-0.4333,-0.0986 -0.6971,-0.3281 -0.6971,-0.7442 0,-0.4208 0.3014,-0.829 0.9985,-0.829 0.785,-0 0.9499,0.5935 0.9499,0.8274l-0.5369,-0s0.0192,-0.3972 -0.4459,-0.3972c-0.2559,-0 -0.427,0.1126 -0.427,0.3548 0.0008,0.212 0.1994,0.2905 0.314,0.3156l0.5024,0.1083c0.3972,0.0955 0.6704,0.3077 0.6704,0.7709 0,0.6688 -0.5935,0.8588 -1.0315,0.8588 -0.7709,-0 -1.0346,-0.5165 -1.0346,-0.9075l0.5354,-0" fill="#fff"/>
  <path d="m52.7,86.3l1.0284,-0l0,0.4726l-1.5857,-0l0,-2.7318l0.5574,-0l0,2.2608" fill="#fff"/>
  <defs>
    <clipPath id="clip7">
      <path d="m56.83,82.3966l-9.891,-0l0,7.9756l9.8125,-0z M 0,0"/>
    </clipPath>
  </defs>
  <path d="m0 0c0.0619,-0.764 0.0928,-1.53 0.0928,-2.31 0,-7.52,-2.93,-14.6,-8.24,-19.9,-5.32,-5.32,-12.4,-8.25,-19.9,-8.25,-7.52 0,-14.6 2.93,-19.9 8.25,-5.32 5.32,-8.25 12.4,-8.25 19.9 0 0.775 0.0341 1.54 0.096 2.31h-3.09c-0.0555,-0.765,-0.0832,-1.53,-0.0832,-2.31 0,-8.34 3.25,-16.2 9.15,-22.1s13.7,-9.15 22.1,-9.15c8.34 0 16.2 3.25 22.1 9.15s9.15 13.7 9.15 22.1c0 0.774,-0.0267 1.54,-0.0832 2.31h-3.1" fill="#fff" clip-path="url(#clip7)"/>
  <path d="m55.2,85.1c0.0121,0.1196 0.0184,0.2402 0.0184,0.3627 0,0.9357 -0.3642,1.8212 -1.0268,2.4806 -0.6563,0.6594 -1.5355,1.0205 -2.4806,1.0205 -0.9357,-0 -1.8212,-0.3642 -2.4806,-1.0268 -0.6625,-0.6625 -1.0268,-1.5417 -1.0268,-2.4806 0,-0.122 0.0069,-0.2433 0.0185,-0.3627l-0.4851,-0c-0.0109,0.1199 -0.0165,0.2402 -0.0165,0.3627 0,1.066 0.4145,2.0724 1.1681,2.826s1.7584,1.1681 2.826,1.1681c1.0645,-0 2.0724,-0.4145 2.826,-1.1681s1.1681,-1.7584 1.1681,-2.826c0,-0.1217 -0.0057,-0.2418 -0.0165,-0.3627l-0.4867,-0" fill="#fff"/>
  <path d="m34.8,47.6c0,-1.07 -0.08,-1.71 -0.28,-2.23 -0.453,-1.15 -1.52,-1.84 -2.83,-1.84 -1.95,0 -3.2,1.49 -3.2,3.79 0,2.29 1.21,3.71 3.17,3.71 1.6,0 2.71,-0.907 2.99,-2.43h-1.12c-0.307,0.92 -0.933,1.4 -1.83,1.4 -0.707,0 -1.31,-0.32 -1.68,-0.907 -0.267,-0.4 -0.36,-0.8 -0.373,-1.49zM29.68,46.693c0.0933,-1.29 0.88,-2.13 2,-2.13 1.09,0 1.93,0.907 1.93,2.05 0,0.0267 0,0.0533 -0.0133,0.08z" fill="#fff"/>
  <path d="m34.2,56.4a9.65,9.04 0,0 1,-8.39 -4.51,9.65 9.04,0 0,1 0.0022,-9.06 9.65,9.04 0,0 1,8.39 -4.51" fill="none" stroke="#fff" stroke-width=".834"/>
  <path d="m34.2,54a7.38,6.73 0,0 1,-6.42 -3.36,7.38 6.73,0 0,1 0.0017,-6.74 7.38,6.73 0,0 1,6.42 -3.35" fill="none" stroke="#fff" stroke-width=".629"/>
  <path d="m34.2,54a7.38,6.73 0,0 1,-6.42 -3.36,7.38 6.73,0 0,1 0.0017,-6.74 7.38,6.73 0,0 1,6.42 -3.35" fill="none" stroke="#fff" stroke-width=".629"/>
  </g>
</svg>
