<?xml version="1.0" encoding="UTF-8" standalone="no"?>
<!-- Created with Inkscape (http://www.inkscape.org/) -->

<svg
   xmlns:dc="http://purl.org/dc/elements/1.1/"
   xmlns:cc="http://creativecommons.org/ns#"
   xmlns:rdf="http://www.w3.org/1999/02/22-rdf-syntax-ns#"
   xmlns:svg="http://www.w3.org/2000/svg"
   xmlns="http://www.w3.org/2000/svg"
   xmlns:sodipodi="http://sodipodi.sourceforge.net/DTD/sodipodi-0.dtd"
   xmlns:inkscape="http://www.inkscape.org/namespaces/inkscape"
   width="85.599998mm"
   height="53.98mm"
   viewBox="0 0 303.30707 191.26771"
   id="svg2"
   version="1.1"
   inkscape:version="0.92.2 5c3e80d, 2017-08-06"
   sodipodi:docname="ravkav-simple.svg">
  <defs
     id="defs4" />
  <sodipodi:namedview
     id="base"
     pagecolor="#ffffff"
     bordercolor="#666666"
     borderopacity="1.0"
     inkscape:pageopacity="0"
     inkscape:pageshadow="2"
     inkscape:zoom="2.8284271"
     inkscape:cx="161.85569"
     inkscape:cy="101.82176"
     inkscape:document-units="px"
     inkscape:current-layer="g838"
     showgrid="false"
     inkscape:showpageshadow="false"
     inkscape:window-width="1680"
     inkscape:window-height="1006"
     inkscape:window-x="0"
     inkscape:window-y="0"
     inkscape:window-maximized="1"
     showguides="true"
     inkscape:guide-bbox="true">
    <sodipodi:guide
       position="111.36932,74.577667"
       orientation="0,1"
       id="guide854"
       inkscape:locked="false" />
    <sodipodi:guide
       position="96.785236,34.471456"
       orientation="0,1"
       id="guide856"
       inkscape:locked="false" />
  </sodipodi:namedview>
  <metadata
     id="metadata7">
    <rdf:RDF>
      <cc:Work
         rdf:about="">
        <dc:format>image/svg+xml</dc:format>
        <dc:type
           rdf:resource="http://purl.org/dc/dcmitype/StillImage" />
        <dc:title></dc:title>
      </cc:Work>
    </rdf:RDF>
  </metadata>
  <g
     inkscape:label="Layer 1"
     inkscape:groupmode="layer"
     id="layer1"
     transform="translate(0,-861.09448)">
    <rect
       style="fill:#99a400;fill-opacity:1;fill-rule:evenodd;stroke:none;stroke-width:1px;stroke-linecap:butt;stroke-linejoin:miter;stroke-opacity:1"
       id="rect3368"
       width="303.3071"
       height="191.26772"
       x="0"
       y="861.09448"
       rx="11.25"
       ry="11.25" />
    <g
       id="g838">
      <path
         style="fill:#26136e;stroke-width:0.75302243;stroke:none"
         d="m 168.92428,979.81952 c -0.21722,-0.5647 -10.31817,-4.95934 -15.85803,-7.18774 -35.81759,-14.4076 -60.126089,-30.719 -67.507373,-45.29856 -5.336866,-10.5414 -3.650389,-16.53926 4.650501,-16.53926 4.824562,0 6.404381,1.32909 9.471848,7.96861 6.754834,14.62082 17.479514,26.17707 30.520614,32.88717 3.51586,1.80903 17.63816,6.58463 19.47192,6.58463 2.67551,0 9.19908,-8.82298 9.8475,-13.31854 1.52625,-10.58136 6.8384,-25.49365 12.44086,-34.92399 7.05878,-11.88169 16.54099,-18.77646 25.8228,-18.77646 6.92595,0 12.60437,3.6544 12.60437,8.11168 0,5.13101 -5.38096,9.15976 -12.27622,9.1913 -14.26686,0.0652 -26.35512,8.26722 -29.5621,20.05813 -1.60063,5.88494 -0.64574,11.02151 3.10125,16.68237 6.88326,10.39906 20.1895,15.472 40.61962,15.48604 15.37397,0.0105 30.42454,-3.67252 38.43187,-9.40482 7.70419,-5.5153 8.63204,-5.95281 8.63204,-4.07033 0,2.64848 -12.77401,14.98933 -20.14335,19.4603 -4.35667,2.64318 -4.89676,3.55268 -2.10969,3.55268 2.31955,0 13.42863,-3.47271 17.14014,-5.35803 5.62347,-2.85652 6.83746,-1.12891 2.28906,3.25754 -1.5531,1.4978 -8.26813,8.63004 -10.33894,9.8338 -58.48216,12.15649 -54.76651,2.81722 -77.24869,1.80348 z m -29.83393,-29.82576 c -4.91075,-2.22954 -6.73547,-7.33828 -4.70297,-13.16706 0.73569,-2.10983 0.43829,-2.97258 -3.3929,-9.84276 -8.61357,-15.44605 -10.93578,-23.66828 -8.18576,-28.98329 1.77622,-3.43292 4.85088,-4.59506 7.00336,-2.64709 2.25039,2.03658 4.34068,10.04684 5.20819,19.95854 0.94868,10.83899 2.54389,16.56649 4.61408,16.56649 1.76382,0 1.81194,-1.0159 0.33888,-7.15371 -4.61788,-19.24143 0.20137,-40.71271 10.32512,-46.0016 2.79315,-1.45921 11.09417,-1.39027 13.23599,0.10993 3.17884,2.22654 1.9196,5.48663 -6.49644,16.81889 -8.66257,11.66422 -11.19473,17.55332 -11.93482,27.75707 l -0.45073,6.21452 3.57337,3.19826 c 8.50508,7.61228 8.48185,15.44629 -0.0529,17.81605 -4.00979,1.11336 -5.43375,1.01236 -9.08251,-0.64424 z m 9.18536,-0.80231 c 2.58684,-1.59876 4.44217,-4.97436 3.99896,-7.27575 -0.41792,-2.17009 -2.3338,-1.60742 -2.99927,0.88084 -0.72289,2.70299 -2.4878,4.13835 -5.10776,4.15403 -1.05979,0.006 -2.43518,0.35164 -3.05642,0.76733 -0.97767,0.65419 -0.93301,0.90574 0.33218,1.87102 1.98464,1.5142 3.92146,1.40152 6.83231,-0.39747 z m -7.693,-9.50513 c 0.61704,-0.61704 -0.81045,-3.2896 -1.75705,-3.2896 -0.39959,0 -0.72653,0.62125 -0.72653,1.38054 0,2.03355 1.33381,3.05882 2.48358,1.90906 z m 5.79967,-1.73911 c 0,-1.65606 -1.13432,-2.62213 -2.2611,-1.92574 -0.50213,0.31033 -0.49325,0.95586 0.0265,1.927 1.00575,1.87927 2.23461,1.87858 2.23461,-0.002 z m 68.07511,3.23734 c -3.68708,-2.75081 -7.63565,-5.86395 -8.77459,-6.91809 -3.0802,-2.85084 -2.78894,-5.86227 1.03485,-10.69973 l 3.10567,-3.92897 -1.22311,-2.56489 c -1.87702,-3.93616 -1.54583,-6.1068 1.37789,-9.03051 2.43266,-2.43266 2.88804,-2.59064 7.03628,-2.44094 4.42702,0.15975 4.44227,0.15281 8.1794,-3.7244 5.32035,-5.51978 7.03316,-5.39843 15.76624,1.11703 9.61564,7.17391 10.8454,8.43955 10.8454,11.16184 0,2.85557 -0.52741,3.62725 -10.82609,15.84014 -12.77932,15.15461 -13.87147,16.18999 -17.07769,16.18999 -2.20399,0 -4.05281,-0.9791 -9.44425,-5.00147 z m 1.46093,-28.60875 c 1.49517,-1.91913 2.53709,-3.78286 2.31535,-4.14163 -0.46845,-0.75798 -3.40767,-0.86279 -5.17517,-0.18454 -1.71111,0.65662 -3.59143,4.59038 -3.03388,6.34708 0.77354,2.4372 3.02074,1.66665 5.8937,-2.02091 z"
         id="path842"
         inkscape:connector-curvature="0"
         sodipodi:nodetypes="csssssscssscssccscscsccccscssssscsccssccccccccccssccccccscscsccssssssccccc" />
      <path
         style="fill:#1b0e39;stroke:none;stroke-width:0.75302243"
         d="m 50.748523,1034.5986 c 0,-0.2443 2.918295,-6.7674 6.4851,-14.4957 7.590782,-16.4473 8.57535,-19.0225 8.57535,-22.42952 v -2.54091 h 12.42487 c 7.621371,0 12.424871,0.28561 12.424871,0.73877 0,0.40632 -1.068795,2.90617 -2.375108,5.55526 -2.958761,6 -2.61173,7.2604 1.999147,7.2604 7.102907,0 10.367317,-2.8153 14.624347,-12.61239 1.91626,-4.41005 2.21329,-5.75505 1.5462,-7.00151 -1.29057,-2.41144 -3.26839,-2.74892 -16.422433,-2.80216 -6.76483,-0.0274 -12.463522,-0.21361 -12.663754,-0.41385 -0.200232,-0.20023 0.511582,-2.09205 1.58181,-4.20405 l 1.945868,-3.83998 23.895779,0.003 c 22.33921,0.002 24.05219,0.0982 26.29689,1.46687 2.77547,1.69233 4.20358,5.64912 3.53898,9.8053 -0.23504,1.46987 -2.6843,7.24338 -5.44279,12.83007 -4.18963,8.485 -5.52052,10.5066 -8.08302,12.2776 -4.4501,3.0757 -7.29364,3.4896 -24.112769,3.5096 -13.450307,0.016 -15.261868,0.1644 -16.300588,1.3357 -0.642727,0.7248 -2.705276,4.6217 -4.583444,8.6598 l -3.414851,7.3418 H 61.71875 c -6.033625,0 -10.970227,-0.1999 -10.970227,-0.4441 z m -13.209822,-56.78564 29.059002,-0.0284 -18.314969,39.93858 H 21.360435 Z m 115.620879,39.13214 c 0,-0.4279 0.85286,-2.4611 1.89524,-4.5181 l 1.89524,-3.7401 h 10.87681 c 12.92256,0 12.21771,0.4282 16.93718,-10.29074 4.84524,-11.00461 4.06456,-12.0164 -9.0138,-11.68219 -4.3487,0.11113 -9.4873,-0.0102 -11.41911,-0.26965 l -3.51237,-0.4717 1.42502,-3.13855 c 0.78377,-1.72621 1.43247,-3.73156 1.44157,-4.45634 0.0154,-1.22544 1.60238,-1.31779 22.6446,-1.31779 17.92071,0 23.05109,0.21922 24.66149,1.05383 2.66437,1.38082 6.33469,5.53582 5.40022,6.11334 -0.40217,0.24857 -0.72789,1.70266 -0.72382,3.23133 0.005,1.77279 -1.41587,5.86435 -3.92248,11.29744 -4.43136,9.60502 -4.37663,9.89942 1.84426,9.91942 1.96727,0.01 3.57686,0.1713 3.57686,0.3666 0,0.1953 -0.82851,2.2284 -1.84112,4.5182 l -1.84111,4.163 h -30.16234 c -20.25317,0 -30.16234,-0.2556 -30.16234,-0.778 z m 85.05169,-2.4223 c 0.77697,-1.7602 3.47493,-7.6055 5.99547,-12.9896 2.52054,-5.38415 4.58367,-10.35813 4.58475,-11.05333 0.005,-3.20271 -1.73195,-3.63064 -14.73578,-3.63064 h -12.37109 v -1.89752 c 0,-1.04364 0.85141,-3.24623 1.892,-4.89465 l 1.89201,-2.99712 h 8.67681 l 25.06599,0.75302 13.05359,0.37651 2.27805,2.55202 c 2.09049,2.34189 2.24935,2.89992 1.92938,6.7772 -0.27456,3.3269 -1.67872,6.98683 -6.60459,17.21481 l -6.25591,12.9896 h -13.40667 -13.40669 z m -100.86516,-13.0383 3.19755,-7.85807 15.62801,0.73288 -3.31219,7.55039 z m 69.27807,-95.49298 c 0,-0.15637 0.593,-0.74938 1.31778,-1.31779 1.19434,-0.93666 1.22098,-0.91003 0.28432,0.28431 -0.98373,1.25434 -1.6021,1.65324 -1.6021,1.03348 z"
         id="path840"
         inkscape:connector-curvature="0"
         sodipodi:nodetypes="scscsscscscccccccccscccsscccccsccsssccccscccscsccsscccscscccccccccccccccccsccs" />
    </g>
    <g
       aria-label="כרטיס הנסיעה של ישראל"
       style="font-style:normal;font-weight:normal;font-size:37.5px;line-height:1.25;font-family:sans-serif;letter-spacing:0px;word-spacing:0px;fill:#1b0e39;fill-opacity:1;stroke:none;stroke-width:0.9375"
       id="text848">
      <path
         d="m 250.92655,1036.015 0.675,-1.8056 q 0.75937,0.2869 1.485,0.2869 1.26562,0 2.12625,-0.7257 0.8775,-0.7425 1.13062,-1.9912 0.25313,-1.2488 -0.32062,-1.9744 -0.57375,-0.7425 -1.85625,-0.7425 -0.7425,0 -1.58625,0.2869 l 0.0337,-1.8056 q 0.91125,-0.27 2.10937,-0.27 2.31188,0 3.39188,1.215 1.08,1.1981 0.65812,3.2906 -0.42187,2.1094 -1.99125,3.3075 -1.56937,1.1981 -3.86437,1.1981 -1.18125,0 -1.99125,-0.27 z"
         style="font-style:italic;font-variant:normal;font-weight:bold;font-stretch:normal;font-size:16.875px;font-family:'Arial Hebrew Scholar';-inkscape-font-specification:'Arial Hebrew Scholar Bold Italic';fill:#1b0e39;fill-opacity:1;stroke-width:0.9375"
         id="path877" />
      <path
         d="m 249.23088,1036.15 h -2.295 l 0.86062,-4.3031 q 0.28688,-1.4006 -0.30375,-1.9913 -0.57375,-0.6075 -2.0925,-0.6075 -0.77625,0 -2.07562,0.1519 l 0.2025,-1.8225 q 1.23187,-0.27 2.78437,-0.27 2.34563,0 3.32438,0.9788 0.97875,0.9787 0.54,3.1387 z"
         style="font-style:italic;font-variant:normal;font-weight:bold;font-stretch:normal;font-size:16.875px;font-family:'Arial Hebrew Scholar';-inkscape-font-specification:'Arial Hebrew Scholar Bold Italic';fill:#1b0e39;fill-opacity:1;stroke-width:0.9375"
         id="path879" />
      <path
         d="m 237.35167,1029.9738 -0.43875,-1.2319 q 1.16437,-1.5356 2.71687,-1.5356 0.91125,0 1.4175,0.5062 0.52313,0.5063 0.62438,1.3331 0.10125,0.81 -0.21938,2.3457 -0.30375,1.5187 -0.84375,2.5143 -0.52312,0.9788 -1.6875,1.7213 -1.1475,0.7256 -2.7,0.7256 -1.46812,0 -2.3625,-0.7087 -0.89437,-0.7257 -1.09687,-1.7382 -0.18563,-1.0125 0.15187,-2.7 l 0.75938,-3.7968 h 2.31187 l -0.8775,4.32 q -0.28687,1.4512 0.15188,2.0756 0.45562,0.6244 1.33312,0.6244 0.91125,0 1.5525,-0.5569 0.64125,-0.5738 0.84375,-1.6031 l 0.16875,-0.8607 q 0.28688,-1.3837 0.0844,-1.7718 -0.2025,-0.405 -0.6075,-0.405 -0.64125,0 -1.2825,0.7425 z"
         style="font-style:italic;font-variant:normal;font-weight:bold;font-stretch:normal;font-size:16.875px;font-family:'Arial Hebrew Scholar';-inkscape-font-specification:'Arial Hebrew Scholar Bold Italic';fill:#1b0e39;fill-opacity:1;stroke-width:0.9375"
         id="path881" />
      <path
         d="m 231.52241,1027.4088 -0.97875,4.8768 h -2.37938 l 0.97875,-4.8768 z"
         style="font-style:italic;font-variant:normal;font-weight:bold;font-stretch:normal;font-size:16.875px;font-family:'Arial Hebrew Scholar';-inkscape-font-specification:'Arial Hebrew Scholar Bold Italic';fill:#1b0e39;fill-opacity:1;stroke-width:0.9375"
         id="path883" />
      <path
         d="m 217.44391,1031.8469 q 0.42188,-2.0756 1.92375,-3.3581 1.50188,-1.2825 3.51,-1.2825 2.00813,0 3.00375,1.2656 1.0125,1.2656 0.6075,3.2737 -0.38812,1.9407 -1.90687,3.2738 -1.50188,1.3331 -3.51,1.3331 -2.00813,0 -3.02063,-1.2487 -1.0125,-1.2488 -0.6075,-3.2569 z m 2.39625,-0.068 q -0.25312,1.215 0.18563,1.9575 0.45562,0.7256 1.4175,0.7256 0.97875,0 1.6875,-0.7256 0.72562,-0.7425 0.97875,-1.9744 0.23625,-1.215 -0.2025,-1.9406 -0.42188,-0.7256 -1.38375,-0.7256 -1.06313,0 -1.77188,0.7931 -0.69187,0.7762 -0.91125,1.89 z"
         style="font-style:italic;font-variant:normal;font-weight:bold;font-stretch:normal;font-size:16.875px;font-family:'Arial Hebrew Scholar';-inkscape-font-specification:'Arial Hebrew Scholar Bold Italic';fill:#1b0e39;fill-opacity:1;stroke-width:0.9375"
         id="path885" />
      <path
         d="m 210.22774,1036.15 h -2.295 l 0.82688,-4.1175 q 0.32062,-1.6031 -0.37125,-2.2106 -0.675,-0.6244 -2.26125,-0.6244 -1.19813,0 -2.64938,0.2025 l 0.2025,-1.8562 q 1.40063,-0.2363 3.22313,-0.2363 1.99125,0 2.95312,0.5738 0.97875,0.5737 1.26563,1.4343 0.30375,0.8607 0,2.3794 z m -4.9275,-4.5394 -0.91125,4.5394 h -2.32875 l 0.91125,-4.5394 z"
         style="font-style:italic;font-variant:normal;font-weight:bold;font-stretch:normal;font-size:16.875px;font-family:'Arial Hebrew Scholar';-inkscape-font-specification:'Arial Hebrew Scholar Bold Italic';fill:#1b0e39;fill-opacity:1;stroke-width:0.9375"
         id="path887" />
      <path
         d="m 199.85436,1036.15 h -4.74187 l 0.405,-1.9912 h 2.43 l 0.64125,-3.2738 q 0.2025,-0.9956 -0.18563,-1.3331 -0.38812,-0.3544 -1.18125,-0.3544 -0.4725,0 -0.675,0.051 l 0.18563,-1.7887 q 0.675,-0.1519 1.67062,-0.1519 1.65375,0 2.27813,0.81 0.62437,0.81 0.27,2.5819 z"
         style="font-style:italic;font-variant:normal;font-weight:bold;font-stretch:normal;font-size:16.875px;font-family:'Arial Hebrew Scholar';-inkscape-font-specification:'Arial Hebrew Scholar Bold Italic';fill:#1b0e39;fill-opacity:1;stroke-width:0.9375"
         id="path889" />
      <path
         d="m 185.53962,1031.8469 q 0.42187,-2.0756 1.92375,-3.3581 1.50187,-1.2825 3.51,-1.2825 2.00812,0 3.00375,1.2656 1.0125,1.2656 0.6075,3.2737 -0.38813,1.9407 -1.90688,3.2738 -1.50187,1.3331 -3.51,1.3331 -2.00812,0 -3.02062,-1.2487 -1.0125,-1.2488 -0.6075,-3.2569 z m 2.39625,-0.068 q -0.25313,1.215 0.18562,1.9575 0.45563,0.7256 1.4175,0.7256 0.97875,0 1.6875,-0.7256 0.72563,-0.7425 0.97875,-1.9744 0.23625,-1.215 -0.2025,-1.9406 -0.42187,-0.7256 -1.38375,-0.7256 -1.06312,0 -1.77187,0.7931 -0.69188,0.7762 -0.91125,1.89 z"
         style="font-style:italic;font-variant:normal;font-weight:bold;font-stretch:normal;font-size:16.875px;font-family:'Arial Hebrew Scholar';-inkscape-font-specification:'Arial Hebrew Scholar Bold Italic';fill:#1b0e39;fill-opacity:1;stroke-width:0.9375"
         id="path891" />
      <path
         d="m 184.65473,1027.4088 -0.97875,4.8768 h -2.37937 l 0.97875,-4.8768 z"
         style="font-style:italic;font-variant:normal;font-weight:bold;font-stretch:normal;font-size:16.875px;font-family:'Arial Hebrew Scholar';-inkscape-font-specification:'Arial Hebrew Scholar Bold Italic';fill:#1b0e39;fill-opacity:1;stroke-width:0.9375"
         id="path893" />
      <path
         d="m 174.96901,1034.4288 q 1.04625,-0.4388 1.45125,-1.0294 0.405,-0.6075 0.65813,-1.8563 l 0.92812,-4.1343 h 2.295 l -0.75937,3.1387 q -0.3375,1.4344 -0.59063,2.1769 -0.23625,0.7256 -0.75937,1.4512 -0.50625,0.7257 -1.40063,1.3163 -0.8775,0.5906 -2.565,1.0969 -1.67062,0.5231 -3.86437,0.8606 l 0.0844,-1.89 q 1.35,-0.2025 2.3625,-0.4388 l 0.0337,-7.7118 h 2.34563 z"
         style="font-style:italic;font-variant:normal;font-weight:bold;font-stretch:normal;font-size:16.875px;font-family:'Arial Hebrew Scholar';-inkscape-font-specification:'Arial Hebrew Scholar Bold Italic';fill:#1b0e39;fill-opacity:1;stroke-width:0.9375"
         id="path895" />
      <path
         d="m 169.22676,1036.15 h -2.295 l 0.82688,-4.1175 q 0.32062,-1.6031 -0.37125,-2.2106 -0.675,-0.6244 -2.26125,-0.6244 -1.19813,0 -2.64938,0.2025 l 0.2025,-1.8562 q 1.40063,-0.2363 3.22313,-0.2363 1.99125,0 2.95312,0.5738 0.97875,0.5737 1.26563,1.4343 0.30375,0.8607 0,2.3794 z m -4.9275,-4.5394 -0.91125,4.5394 h -2.32875 l 0.91125,-4.5394 z"
         style="font-style:italic;font-variant:normal;font-weight:bold;font-stretch:normal;font-size:16.875px;font-family:'Arial Hebrew Scholar';-inkscape-font-specification:'Arial Hebrew Scholar Bold Italic';fill:#1b0e39;fill-opacity:1;stroke-width:0.9375"
         id="path897" />
      <path
         d="m 147.25235,1033.0619 q 0.0337,0.675 0.6075,1.1306 0.59063,0.4556 1.43438,0.4556 1.40062,0 2.43,-0.9956 1.02937,-1.0125 1.43437,-3.0375 l 0.8775,-3.2062 h 2.27813 l -0.96188,3.3412 q -0.6075,2.1263 -1.29937,3.1388 -0.69188,1.0125 -1.99125,1.755 -1.29938,0.7425 -3.08813,0.7425 -2.32875,0 -3.375,-1.5019 -1.04625,-1.5019 -0.43875,-4.5225 l 0.48938,-2.9531 h 2.295 l -0.45563,2.3118 -0.28687,1.8732 q 0.55687,0 1.04625,-0.27 0.48937,-0.2869 0.7425,-0.7594 0.25312,-0.4725 0.4725,-1.6031 l 0.405,-1.5525 h 2.24437 l -0.55687,2.16 q -0.21938,0.8437 -0.42188,1.3162 -0.2025,0.4556 -0.65812,0.9281 -0.43875,0.4725 -1.23188,0.81 -0.79312,0.3375 -1.99125,0.4388 z"
         style="font-style:italic;font-variant:normal;font-weight:bold;font-stretch:normal;font-size:16.875px;font-family:'Arial Hebrew Scholar';-inkscape-font-specification:'Arial Hebrew Scholar Bold Italic';fill:#1b0e39;fill-opacity:1;stroke-width:0.9375"
         id="path899" />
      <path
         d="m 144.04452,1027.4088 -0.45563,2.2443 q -0.25312,1.2319 -0.4725,1.8225 -0.21937,0.5738 -0.65812,1.0632 -0.97875,1.1137 -1.16438,1.4175 -0.16875,0.3037 -0.25312,0.7425 l -0.28688,1.4512 h -2.295 l 0.32063,-1.5694 q 0.135,-0.6918 0.405,-1.1643 0.28687,-0.4725 1.215,-1.4682 0.54,-0.5906 0.70875,-1.4512 l 0.21937,-1.0969 h -4.6575 l 1.06313,-5.3325 h 2.295 l -0.65813,3.3413 z"
         style="font-style:italic;font-variant:normal;font-weight:bold;font-stretch:normal;font-size:16.875px;font-family:'Arial Hebrew Scholar';-inkscape-font-specification:'Arial Hebrew Scholar Bold Italic';fill:#1b0e39;fill-opacity:1;stroke-width:0.9375"
         id="path901" />
      <path
         d="m 130.73384,1027.4088 -0.97875,4.8768 h -2.37938 l 0.97875,-4.8768 z"
         style="font-style:italic;font-variant:normal;font-weight:bold;font-stretch:normal;font-size:16.875px;font-family:'Arial Hebrew Scholar';-inkscape-font-specification:'Arial Hebrew Scholar Bold Italic';fill:#1b0e39;fill-opacity:1;stroke-width:0.9375"
         id="path903" />
      <path
         d="m 117.52335,1033.0619 q 0.0338,0.675 0.6075,1.1306 0.59062,0.4556 1.43437,0.4556 1.40063,0 2.43,-0.9956 1.02938,-1.0125 1.43438,-3.0375 l 0.8775,-3.2062 h 2.27812 l -0.96187,3.3412 q -0.6075,2.1263 -1.29938,3.1388 -0.69187,1.0125 -1.99125,1.755 -1.29937,0.7425 -3.08812,0.7425 -2.32875,0 -3.375,-1.5019 -1.04625,-1.5019 -0.43875,-4.5225 l 0.48937,-2.9531 h 2.295 l -0.45562,2.3118 -0.28688,1.8732 q 0.55688,0 1.04625,-0.27 0.48938,-0.2869 0.7425,-0.7594 0.25313,-0.4725 0.4725,-1.6031 l 0.405,-1.5525 h 2.24438 l -0.55688,2.16 q -0.21937,0.8437 -0.42187,1.3162 -0.2025,0.4556 -0.65813,0.9281 -0.43875,0.4725 -1.23187,0.81 -0.79313,0.3375 -1.99125,0.4388 z"
         style="font-style:italic;font-variant:normal;font-weight:bold;font-stretch:normal;font-size:16.875px;font-family:'Arial Hebrew Scholar';-inkscape-font-specification:'Arial Hebrew Scholar Bold Italic';fill:#1b0e39;fill-opacity:1;stroke-width:0.9375"
         id="path905" />
      <path
         d="m 112.38517,1036.15 h -2.295 l 0.86063,-4.3031 q 0.28687,-1.4006 -0.30375,-1.9913 -0.57375,-0.6075 -2.0925,-0.6075 -0.77625,0 -2.07563,0.1519 l 0.2025,-1.8225 q 1.23188,-0.27 2.78438,-0.27 2.34562,0 3.32437,0.9788 0.97875,0.9787 0.54,3.1387 z"
         style="font-style:italic;font-variant:normal;font-weight:bold;font-stretch:normal;font-size:16.875px;font-family:'Arial Hebrew Scholar';-inkscape-font-specification:'Arial Hebrew Scholar Bold Italic';fill:#1b0e39;fill-opacity:1;stroke-width:0.9375"
         id="path907" />
      <path
         d="m 102.49669,1032.4375 1.89,3.7125 h -2.71688 l -2.193748,-4.32 q -0.860625,0.7256 -1.231875,2.5819 l -0.489375,1.7381 h -2.244375 l 0.54,-1.8562 q 0.54,-1.8732 1.1475,-2.6832 0.624375,-0.81 1.501875,-1.2993 l -1.45125,-2.9025 h 2.716875 l 1.805623,3.5775 q 0.89438,-0.5738 1.215,-2.1432 l 0.405,-1.4343 h 2.14313 l -0.32063,1.0631 q -0.52312,1.8056 -1.09687,2.5819 -0.57375,0.7593 -1.62,1.3837 z"
         style="font-style:italic;font-variant:normal;font-weight:bold;font-stretch:normal;font-size:16.875px;font-family:'Arial Hebrew Scholar';-inkscape-font-specification:'Arial Hebrew Scholar Bold Italic';fill:#1b0e39;fill-opacity:1;stroke-width:0.9375"
         id="path909" />
      <path
         d="m 95.66073,1027.4088 -0.455625,2.2443 q -0.253125,1.2319 -0.4725,1.8225 -0.219375,0.5738 -0.658125,1.0632 -0.97875,1.1137 -1.164375,1.4175 -0.16875,0.3037 -0.253125,0.7425 l -0.286875,1.4512 h -2.295 l 0.320625,-1.5694 q 0.135,-0.6918 0.405,-1.1643 0.286875,-0.4725 1.215,-1.4682 0.54,-0.5906 0.70875,-1.4512 l 0.219375,-1.0969 h -4.6575 l 1.063125,-5.3325 h 2.295 l -0.658125,3.3413 z"
         style="font-style:italic;font-variant:normal;font-weight:bold;font-stretch:normal;font-size:16.875px;font-family:'Arial Hebrew Scholar';-inkscape-font-specification:'Arial Hebrew Scholar Bold Italic';fill:#1b0e39;fill-opacity:1;stroke-width:0.9375"
         id="path911" />
    </g>
  </g>
</svg>
