<?xml version="1.0" encoding="UTF-8" standalone="no"?>
<!-- Created with Inkscape (http://www.inkscape.org/) -->

<svg
   xmlns:dc="http://purl.org/dc/elements/1.1/"
   xmlns:cc="http://creativecommons.org/ns#"
   xmlns:rdf="http://www.w3.org/1999/02/22-rdf-syntax-ns#"
   xmlns:svg="http://www.w3.org/2000/svg"
   xmlns="http://www.w3.org/2000/svg"
   xmlns:sodipodi="http://sodipodi.sourceforge.net/DTD/sodipodi-0.dtd"
   xmlns:inkscape="http://www.inkscape.org/namespaces/inkscape"
   width="85.599998mm"
   height="53.98mm"
   viewBox="0 0 303.30707 191.26771"
   id="svg2"
   version="1.1"
   inkscape:version="0.92.2 5c3e80d, 2017-08-06"
   sodipodi:docname="opus-simple.svg">
  <defs
     id="defs4" />
  <sodipodi:namedview
     id="base"
     pagecolor="#ffffff"
     bordercolor="#666666"
     borderopacity="1.0"
     inkscape:pageopacity="0"
     inkscape:pageshadow="2"
     inkscape:zoom="2"
     inkscape:cx="152.70078"
     inkscape:cy="57.53043"
     inkscape:document-units="px"
     inkscape:current-layer="g1555"
     showgrid="false"
     inkscape:showpageshadow="false"
     inkscape:window-width="1566"
     inkscape:window-height="948"
     inkscape:window-x="16"
     inkscape:window-y="21"
     inkscape:window-maximized="0"
     showguides="true"
     inkscape:guide-bbox="true">
    <sodipodi:guide
       position="186.79687,163.35938"
       orientation="0,1"
       id="guide1575"
       inkscape:locked="false" />
    <sodipodi:guide
       position="183.51562,118.125"
       orientation="0,1"
       id="guide1577"
       inkscape:locked="false" />
  </sodipodi:namedview>
  <metadata
     id="metadata7">
    <rdf:RDF>
      <cc:Work
         rdf:about="">
        <dc:format>image/svg+xml</dc:format>
        <dc:type
           rdf:resource="http://purl.org/dc/dcmitype/StillImage" />
        <dc:title></dc:title>
      </cc:Work>
    </rdf:RDF>
  </metadata>
  <g
     inkscape:label="Layer 1"
     inkscape:groupmode="layer"
     id="layer1"
     transform="translate(0,-861.09448)">
    <rect
       style="fill:#209bd7;fill-opacity:1;fill-rule:evenodd;stroke:none;stroke-width:1px;stroke-linecap:butt;stroke-linejoin:miter;stroke-opacity:1"
       id="rect3368"
       width="303.3071"
       height="191.26772"
       x="0"
       y="861.09448"
       rx="11.25"
       ry="11.25" />
    <g
       id="g1555">
      <path
         style="fill:#ffffff;stroke-width:0.75826776;fill-opacity:1"
         d="m 131.21154,889.0675 c -15.58099,-0.79021 -26.6164,18.77142 -19.38352,32.1282 5.06926,13.43341 25.28779,17.36512 34.71426,6.30404 10.62213,-10.38376 7.41369,-31.3169 -6.82639,-36.79875 -2.6652,-1.1663 -5.59195,-1.77158 -8.50435,-1.63349 z m 34.92188,0.25635 c -7.9663,-1.86298 -8.9586,8.73754 -7.74409,14.23977 0.70394,7.93878 -1.27653,22.05027 -0.46224,29.9481 l 5.12059,-0.0738 c -0.15883,-7.4363 -1.71396,-29.46896 -1.86871,-36.83971 1.47307,-6.23308 8.40434,-3.05745 12.8207,-3.69225 6.64704,-0.11276 14.57458,2.83869 16.05863,10.10537 1.94461,7.71941 -5.0332,15.71167 -12.92092,14.99991 -4.01183,-1.13228 -7.16014,3.59869 -1.36804,3.36194 7.13339,1.1237 14.12536,-3.80505 16.71613,-10.25813 3.13693,-9.08978 -3.40608,-20.85543 -13.52913,-20.99841 -4.22752,-0.7855 -8.54608,-0.63439 -12.82292,-0.79275 z m 103.1195,0.011 c -9.138,1.12943 7.5077,9.26288 3.48481,0.55173 -0.9767,-0.79472 -2.3222,-0.77573 -3.48481,-0.55173 z m -16.24328,0.0403 c -7.42385,-1.38613 -17.01524,4.48069 -15.69632,12.79121 1.85738,8.29102 11.6741,8.66135 17.83936,12.10052 6.51706,3.44847 5.08042,13.62971 -2.41763,14.67778 -4.34742,2.50774 -12.54179,-2.22995 -14.60983,2.56778 4.3109,1.66311 9.50205,1.49484 14.11938,0.71762 6.26223,-0.94232 12.4685,-7.02781 10.2303,-13.73017 -2.37803,-7.72749 -11.33639,-8.83165 -17.59219,-11.97462 -8.47976,-3.64157 -1.45736,-16.75546 6.42191,-13.92123 3.28827,1.87014 12.20958,-3.01143 4.17692,-3.25987 -0.82373,-0.033 -1.64949,-0.025 -2.4719,0.031 z m -26.08154,-0.37234 c 0.46441,12.56825 4.72266,23.53224 0.0971,34.2398 -5.04572,9.18004 -21.89043,8.65105 -24.55873,-2.15393 -1.84229,-8.53634 -0.2117,-22.96233 -0.53165,-31.59585 l -3.74997,0.47861 c -0.42144,9.23792 -0.90501,26.42874 2.10779,35.26644 6.67524,11.61267 27.70967,9.66799 31.0318,-3.72578 0.17888,-10.33769 1.74258,-22.33044 -0.64632,-32.50929 z m -96.11023,3.23977 c 14.09349,-0.86111 23.69156,17.28533 16.35181,28.92583 -5.3006,10.47415 -21.98651,13.33608 -29.3151,3.46914 -8.75248,-9.67062 -4.80545,-28.14985 8.35039,-31.62555 1.49013,-0.47497 3.04806,-0.74538 4.6129,-0.76942 z"
         id="path1561"
         inkscape:connector-curvature="0"
         sodipodi:nodetypes="ccccccccccccccccccccccccccccccccccccccccccccccc" />
      <path
         style="fill:#ea7d05;stroke-width:0.75826776"
         d="m 88.578139,1048.0022 c 6.048831,-6.9363 24.144521,-24.4421 31.746831,-30.7119 42.03888,-34.67058 92.95191,-60.79656 142.94948,-73.35439 12.35021,-3.10199 32.84269,-6.83039 37.54201,-6.83039 2.23541,0 2.49064,0.22248 2.49064,2.17104 0,2.12595 -0.13778,2.1977 -6.63484,3.45517 -36.63468,7.09041 -77.50624,25.51022 -111.41966,50.21411 -21.8366,15.90666 -38.5479,32.14366 -52.76255,51.26496 l -6.05965,8.1514 H 105.60317 84.775934 Z m 49.876211,0.3791 c 33.1279,-46.2152 93.86629,-86.93989 152.34133,-102.14399 4.58752,-1.1928 9.29752,-2.3816 10.46666,-2.64179 l 2.12572,-0.47307 -0.23005,3.90019 -0.23004,3.90019 -6.82441,2.46611 c -21.1267,7.63449 -45.26423,20.93621 -64.96617,35.8016 -24.77424,18.69246 -41.2445,36.97626 -50.43721,55.99076 l -3.4717,7.1809 h -20.81386 -20.81386 z"
         id="path1557"
         inkscape:connector-curvature="0" />
    </g>
  </g>
</svg>
